<svg width="133" height="44" viewBox="0 0 133 44" fill="none" xmlns="http://www.w3.org/2000/svg">
<rect width="133" height="44" rx="5" fill="#142683"/>
<path d="M32.396 23.224V21.512H35.404V18.744H37.148V21.512H40.14V23.224H37.148V25.992H35.404V23.224H32.396ZM41.8149 27V15.8H43.8629L49.1269 23.688V15.8H51.1749V27H49.1269L43.8629 19.128V27H41.8149ZM56.8341 27.192C56.0341 27.192 55.3248 27.0213 54.7061 26.68C54.0875 26.3387 53.6021 25.8587 53.2501 25.24C52.8981 24.6213 52.7221 23.9067 52.7221 23.096C52.7221 22.2747 52.8928 21.544 53.2341 20.904C53.5861 20.264 54.0661 19.768 54.6741 19.416C55.2928 19.0533 56.0181 18.872 56.8501 18.872C57.6288 18.872 58.3168 19.0427 58.9141 19.384C59.5115 19.7253 59.9755 20.1947 60.3061 20.792C60.6475 21.3787 60.8181 22.0347 60.8181 22.76C60.8181 22.8773 60.8128 23 60.8021 23.128C60.8021 23.256 60.7968 23.3893 60.7861 23.528H54.7541C54.7968 24.1467 55.0101 24.632 55.3941 24.984C55.7888 25.336 56.2635 25.512 56.8181 25.512C57.2341 25.512 57.5808 25.4213 57.8581 25.24C58.1461 25.048 58.3595 24.8027 58.4981 24.504H60.5781C60.4288 25.0053 60.1781 25.464 59.8261 25.88C59.4848 26.2853 59.0581 26.6053 58.5461 26.84C58.0448 27.0747 57.4741 27.192 56.8341 27.192ZM56.8501 20.536C56.3488 20.536 55.9061 20.68 55.5221 20.968C55.1381 21.2453 54.8928 21.672 54.7861 22.248H58.7381C58.7061 21.7253 58.5141 21.3093 58.1621 21C57.8101 20.6907 57.3728 20.536 56.8501 20.536ZM63.4601 27L61.1401 19.064H63.1721L64.5481 24.776L66.1481 19.064H68.4201L70.0201 24.776L71.4121 19.064H73.4441L71.1081 27H68.9801L67.2841 21.064L65.5881 27H63.4601ZM77.2368 27L81.3328 15.8H83.6368L87.7328 27H85.5568L84.6608 24.408H80.2928L79.3808 27H77.2368ZM80.8528 22.808H84.1008L82.4688 18.152L80.8528 22.808ZM88.8555 27V15.8H92.9995C93.8955 15.8 94.6368 15.9493 95.2235 16.248C95.8102 16.5467 96.2475 16.9573 96.5355 17.48C96.8235 18.0027 96.9675 18.5893 96.9675 19.24C96.9675 19.8587 96.8288 20.4293 96.5515 20.952C96.2742 21.464 95.8422 21.88 95.2555 22.2C94.6688 22.5093 93.9168 22.664 92.9995 22.664H90.9035V27H88.8555ZM90.9035 21H92.8715C93.5862 21 94.0982 20.8453 94.4075 20.536C94.7275 20.216 94.8875 19.784 94.8875 19.24C94.8875 18.6853 94.7275 18.2533 94.4075 17.944C94.0982 17.624 93.5862 17.464 92.8715 17.464H90.9035V21ZM98.2543 27V15.8H100.302V27H98.2543Z" fill="white"/>
</svg>
