<svg width="133" height="44" viewBox="0 0 133 44" fill="none" xmlns="http://www.w3.org/2000/svg">
<rect width="133" height="44" rx="5" fill="#1E272E"/>
<path d="M34.836 27L30.74 15.8H32.932L36.1 24.904L39.284 15.8H41.444L37.348 27H34.836ZM43.5115 17.832C43.1382 17.832 42.8288 17.72 42.5835 17.496C42.3488 17.272 42.2315 16.9893 42.2315 16.648C42.2315 16.3067 42.3488 16.0293 42.5835 15.816C42.8288 15.592 43.1382 15.48 43.5115 15.48C43.8848 15.48 44.1888 15.592 44.4235 15.816C44.6688 16.0293 44.7915 16.3067 44.7915 16.648C44.7915 16.9893 44.6688 17.272 44.4235 17.496C44.1888 17.72 43.8848 17.832 43.5115 17.832ZM42.4875 27V19.064H44.5355V27H42.4875ZM50.2091 27.192C49.4091 27.192 48.6998 27.0213 48.0811 26.68C47.4625 26.3387 46.9771 25.8587 46.6251 25.24C46.2731 24.6213 46.0971 23.9067 46.0971 23.096C46.0971 22.2747 46.2678 21.544 46.6091 20.904C46.9611 20.264 47.4411 19.768 48.0491 19.416C48.6678 19.0533 49.3931 18.872 50.2251 18.872C51.0038 18.872 51.6918 19.0427 52.2891 19.384C52.8865 19.7253 53.3505 20.1947 53.6811 20.792C54.0225 21.3787 54.1931 22.0347 54.1931 22.76C54.1931 22.8773 54.1878 23 54.1771 23.128C54.1771 23.256 54.1718 23.3893 54.1611 23.528H48.1291C48.1718 24.1467 48.3851 24.632 48.7691 24.984C49.1638 25.336 49.6385 25.512 50.1931 25.512C50.6091 25.512 50.9558 25.4213 51.2331 25.24C51.5211 25.048 51.7345 24.8027 51.8731 24.504H53.9531C53.8038 25.0053 53.5531 25.464 53.2011 25.88C52.8598 26.2853 52.4331 26.6053 51.9211 26.84C51.4198 27.0747 50.8491 27.192 50.2091 27.192ZM50.2251 20.536C49.7238 20.536 49.2811 20.68 48.8971 20.968C48.5131 21.2453 48.2678 21.672 48.1611 22.248H52.1131C52.0811 21.7253 51.8891 21.3093 51.5371 21C51.1851 20.6907 50.7478 20.536 50.2251 20.536ZM56.8351 27L54.5151 19.064H56.5471L57.9231 24.776L59.5231 19.064H61.7951L63.3951 24.776L64.7871 19.064H66.8191L64.4831 27H62.3551L60.6591 21.064L58.9631 27H56.8351ZM70.6118 27L74.7078 15.8H77.0118L81.1078 27H78.9318L78.0358 24.408H73.6678L72.7558 27H70.6118ZM74.2278 22.808H77.4758L75.8438 18.152L74.2278 22.808ZM82.1825 30.52V19.064H84.0065L84.2305 20.2C84.4865 19.848 84.8225 19.5387 85.2385 19.272C85.6652 19.0053 86.2145 18.872 86.8865 18.872C87.6332 18.872 88.2998 19.0533 88.8865 19.416C89.4732 19.7787 89.9372 20.2747 90.2785 20.904C90.6198 21.5333 90.7905 22.248 90.7905 23.048C90.7905 23.848 90.6198 24.5627 90.2785 25.192C89.9372 25.8107 89.4732 26.3013 88.8865 26.664C88.2998 27.016 87.6332 27.192 86.8865 27.192C86.2892 27.192 85.7665 27.08 85.3185 26.856C84.8705 26.632 84.5078 26.3173 84.2305 25.912V30.52H82.1825ZM86.4545 25.4C87.1052 25.4 87.6438 25.1813 88.0705 24.744C88.4972 24.3067 88.7105 23.7413 88.7105 23.048C88.7105 22.3547 88.4972 21.784 88.0705 21.336C87.6438 20.888 87.1052 20.664 86.4545 20.664C85.7932 20.664 85.2492 20.888 84.8225 21.336C84.4065 21.7733 84.1985 22.3387 84.1985 23.032C84.1985 23.7253 84.4065 24.296 84.8225 24.744C85.2492 25.1813 85.7932 25.4 86.4545 25.4ZM92.3 30.52V19.064H94.124L94.348 20.2C94.604 19.848 94.94 19.5387 95.356 19.272C95.7827 19.0053 96.332 18.872 97.004 18.872C97.7507 18.872 98.4173 19.0533 99.004 19.416C99.5907 19.7787 100.055 20.2747 100.396 20.904C100.737 21.5333 100.908 22.248 100.908 23.048C100.908 23.848 100.737 24.5627 100.396 25.192C100.055 25.8107 99.5907 26.3013 99.004 26.664C98.4173 27.016 97.7507 27.192 97.004 27.192C96.4067 27.192 95.884 27.08 95.436 26.856C94.988 26.632 94.6253 26.3173 94.348 25.912V30.52H92.3ZM96.572 25.4C97.2227 25.4 97.7613 25.1813 98.188 24.744C98.6147 24.3067 98.828 23.7413 98.828 23.048C98.828 22.3547 98.6147 21.784 98.188 21.336C97.7613 20.888 97.2227 20.664 96.572 20.664C95.9107 20.664 95.3667 20.888 94.94 21.336C94.524 21.7733 94.316 22.3387 94.316 23.032C94.316 23.7253 94.524 24.296 94.94 24.744C95.3667 25.1813 95.9107 25.4 96.572 25.4Z" fill="white"/>
</svg>
