<svg width="207" height="21" viewBox="0 0 207 21" fill="none" xmlns="http://www.w3.org/2000/svg">
<path d="M1.136 16V4.8H3.136L6.928 12.256L10.704 4.8H12.704V16H11.008V7.728L7.584 14.4H6.272L2.832 7.744V16H1.136ZM15.5238 19.52L17.4278 15.344H16.9638L13.8278 8.064H15.6678L18.0998 13.936L20.6438 8.064H22.4358L17.3158 19.52H15.5238ZM26.5654 16L30.6934 4.8H32.5494L36.6454 16H34.8534L33.8934 13.264H29.3174L28.3574 16H26.5654ZM29.7974 11.92H33.4134L31.6054 6.816L29.7974 11.92ZM37.8873 16V4.8H41.8073C42.6819 4.8 43.4073 4.94933 43.9833 5.248C44.5593 5.536 44.9859 5.936 45.2633 6.448C45.5513 6.94933 45.6953 7.52 45.6953 8.16C45.6953 8.768 45.5566 9.328 45.2793 9.84C45.0126 10.3413 44.5913 10.7413 44.0153 11.04C43.4393 11.3387 42.7033 11.488 41.8073 11.488H39.5833V16H37.8873ZM39.5833 10.096H41.7273C42.5273 10.096 43.0979 9.92533 43.4393 9.584C43.7913 9.232 43.9673 8.75733 43.9673 8.16C43.9673 7.54133 43.7913 7.06133 43.4393 6.72C43.0979 6.368 42.5273 6.192 41.7273 6.192H39.5833V10.096ZM47.0516 16V4.8H48.7476V16H47.0516ZM53.8044 16.192C52.8017 16.192 51.975 15.9467 51.3244 15.456C50.6737 14.9653 50.3004 14.3147 50.2044 13.504H51.9164C52.0017 13.8667 52.2044 14.1813 52.5244 14.448C52.8444 14.704 53.2657 14.832 53.7884 14.832C54.3004 14.832 54.6737 14.7253 54.9084 14.512C55.143 14.2987 55.2604 14.0533 55.2604 13.776C55.2604 13.3707 55.095 13.0987 54.7644 12.96C54.4444 12.8107 53.9964 12.6773 53.4204 12.56C52.9724 12.464 52.5244 12.336 52.0764 12.176C51.639 12.016 51.271 11.792 50.9724 11.504C50.6844 11.2053 50.5404 10.8053 50.5404 10.304C50.5404 9.61067 50.807 9.03467 51.3404 8.576C51.8737 8.10667 52.6204 7.872 53.5804 7.872C54.4657 7.872 55.1804 8.08533 55.7244 8.512C56.279 8.93867 56.6044 9.54133 56.7004 10.32H55.0684C55.015 9.97867 54.855 9.712 54.5884 9.52C54.3324 9.328 53.9857 9.232 53.5484 9.232C53.1217 9.232 52.791 9.32267 52.5564 9.504C52.3217 9.67467 52.2044 9.89867 52.2044 10.176C52.2044 10.4533 52.3644 10.672 52.6844 10.832C53.015 10.992 53.447 11.136 53.9804 11.264C54.5137 11.3813 55.0044 11.52 55.4524 11.68C55.911 11.8293 56.279 12.0533 56.5564 12.352C56.8337 12.6507 56.9724 13.088 56.9724 13.664C56.983 14.3893 56.7004 14.992 56.1244 15.472C55.559 15.952 54.7857 16.192 53.8044 16.192Z" fill="#566474"/>
<path d="M119.136 16V4.8H121.136L124.928 12.256L128.704 4.8H130.704V16H129.008V7.728L125.584 14.4H124.272L120.832 7.744V16H119.136ZM133.524 19.52L135.428 15.344H134.964L131.828 8.064H133.668L136.1 13.936L138.644 8.064H140.436L135.316 19.52H133.524ZM144.565 16L148.693 4.8H150.549L154.645 16H152.853L151.893 13.264H147.317L146.357 16H144.565ZM147.797 11.92H151.413L149.605 6.816L147.797 11.92ZM159.177 16.192C158.398 16.192 157.7 16.016 157.081 15.664C156.473 15.312 155.993 14.8267 155.641 14.208C155.3 13.5787 155.129 12.8533 155.129 12.032C155.129 11.2107 155.3 10.4907 155.641 9.872C155.993 9.24267 156.473 8.752 157.081 8.4C157.7 8.048 158.398 7.872 159.177 7.872C160.158 7.872 160.98 8.128 161.641 8.64C162.313 9.152 162.745 9.84533 162.937 10.72H161.161C161.054 10.2827 160.82 9.94133 160.457 9.696C160.094 9.45067 159.668 9.328 159.177 9.328C158.761 9.328 158.377 9.43467 158.025 9.648C157.673 9.85067 157.39 10.1547 157.177 10.56C156.964 10.9547 156.857 11.4453 156.857 12.032C156.857 12.6187 156.964 13.1147 157.177 13.52C157.39 13.9147 157.673 14.2187 158.025 14.432C158.377 14.6453 158.761 14.752 159.177 14.752C159.668 14.752 160.094 14.6293 160.457 14.384C160.82 14.1387 161.054 13.792 161.161 13.344H162.937C162.756 14.1973 162.329 14.8853 161.657 15.408C160.985 15.9307 160.158 16.192 159.177 16.192ZM168.216 16.192C167.438 16.192 166.739 16.016 166.12 15.664C165.512 15.312 165.032 14.8267 164.68 14.208C164.339 13.5787 164.168 12.8533 164.168 12.032C164.168 11.2107 164.339 10.4907 164.68 9.872C165.032 9.24267 165.512 8.752 166.12 8.4C166.739 8.048 167.438 7.872 168.216 7.872C169.198 7.872 170.019 8.128 170.68 8.64C171.352 9.152 171.784 9.84533 171.976 10.72H170.2C170.094 10.2827 169.859 9.94133 169.496 9.696C169.134 9.45067 168.707 9.328 168.216 9.328C167.8 9.328 167.416 9.43467 167.064 9.648C166.712 9.85067 166.43 10.1547 166.216 10.56C166.003 10.9547 165.896 11.4453 165.896 12.032C165.896 12.6187 166.003 13.1147 166.216 13.52C166.43 13.9147 166.712 14.2187 167.064 14.432C167.416 14.6453 167.8 14.752 168.216 14.752C168.707 14.752 169.134 14.6293 169.496 14.384C169.859 14.1387 170.094 13.792 170.2 13.344H171.976C171.795 14.1973 171.368 14.8853 170.696 15.408C170.024 15.9307 169.198 16.192 168.216 16.192ZM177.208 16.192C176.45 16.192 175.768 16.0213 175.16 15.68C174.562 15.328 174.088 14.8427 173.736 14.224C173.384 13.5947 173.208 12.864 173.208 12.032C173.208 11.2 173.384 10.4747 173.736 9.856C174.098 9.22667 174.584 8.74133 175.192 8.4C175.8 8.048 176.477 7.872 177.224 7.872C177.981 7.872 178.658 8.048 179.256 8.4C179.864 8.74133 180.344 9.22667 180.696 9.856C181.058 10.4747 181.24 11.2 181.24 12.032C181.24 12.864 181.058 13.5947 180.696 14.224C180.344 14.8427 179.864 15.328 179.256 15.68C178.648 16.0213 177.965 16.192 177.208 16.192ZM177.208 14.736C177.613 14.736 177.986 14.6347 178.328 14.432C178.68 14.2293 178.962 13.9307 179.176 13.536C179.389 13.1307 179.496 12.6293 179.496 12.032C179.496 11.4347 179.389 10.9387 179.176 10.544C178.973 10.1387 178.696 9.83467 178.344 9.632C178.002 9.42933 177.629 9.328 177.224 9.328C176.818 9.328 176.44 9.42933 176.088 9.632C175.746 9.83467 175.469 10.1387 175.256 10.544C175.042 10.9387 174.936 11.4347 174.936 12.032C174.936 12.6293 175.042 13.1307 175.256 13.536C175.469 13.9307 175.746 14.2293 176.088 14.432C176.429 14.6347 176.802 14.736 177.208 14.736ZM185.682 16.192C184.722 16.192 183.965 15.8933 183.41 15.296C182.866 14.6987 182.594 13.808 182.594 12.624V8.064H184.29V12.448C184.29 13.984 184.919 14.752 186.178 14.752C186.807 14.752 187.325 14.528 187.73 14.08C188.135 13.632 188.338 12.992 188.338 12.16V8.064H190.034V16H188.53L188.402 14.608C188.157 15.0987 187.794 15.488 187.314 15.776C186.845 16.0533 186.301 16.192 185.682 16.192ZM191.871 16V8.064H193.375L193.503 9.456C193.749 8.96533 194.106 8.58133 194.575 8.304C195.055 8.016 195.605 7.872 196.223 7.872C197.183 7.872 197.935 8.17067 198.479 8.768C199.034 9.36533 199.311 10.256 199.311 11.44V16H197.631V11.616C197.631 10.08 197.002 9.312 195.743 9.312C195.114 9.312 194.591 9.536 194.175 9.984C193.77 10.432 193.567 11.072 193.567 11.904V16H191.871ZM204.317 16C203.538 16 202.92 15.8133 202.461 15.44C202.002 15.056 201.773 14.3787 201.773 13.408V9.488H200.413V8.064H201.773L201.981 6.048H203.469V8.064H205.709V9.488H203.469V13.408C203.469 13.8453 203.56 14.1493 203.741 14.32C203.933 14.48 204.258 14.56 204.717 14.56H205.629V16H204.317Z" fill="#566474"/>
</svg>
