<svg width="395" height="92" viewBox="0 0 395 92" fill="none" xmlns="http://www.w3.org/2000/svg">
<path d="M4.004 84V67.76L0.84 68.488V66.304L5.18 64.4H7.084V84H4.004ZM18.3461 84.336C16.5728 84.336 15.0421 83.916 13.7541 83.076C12.4848 82.2173 11.5048 81.032 10.8141 79.52C10.1421 77.9893 9.80612 76.216 9.80612 74.2C9.80612 72.184 10.1421 70.42 10.8141 68.908C11.5048 67.3773 12.4848 66.192 13.7541 65.352C15.0421 64.4933 16.5728 64.064 18.3461 64.064C20.1195 64.064 21.6408 64.4933 22.9101 65.352C24.1795 66.192 25.1501 67.3773 25.8221 68.908C26.5128 70.42 26.8581 72.184 26.8581 74.2C26.8581 76.216 26.5128 77.9893 25.8221 79.52C25.1501 81.032 24.1795 82.2173 22.9101 83.076C21.6408 83.916 20.1195 84.336 18.3461 84.336ZM18.3461 81.676C19.4101 81.676 20.3528 81.3773 21.1741 80.78C22.0141 80.1827 22.6675 79.324 23.1341 78.204C23.6008 77.084 23.8341 75.7493 23.8341 74.2C23.8341 72.6507 23.6008 71.316 23.1341 70.196C22.6675 69.076 22.0141 68.2173 21.1741 67.62C20.3528 67.0227 19.4101 66.724 18.3461 66.724C17.2635 66.724 16.3115 67.0227 15.4901 67.62C14.6688 68.2173 14.0248 69.076 13.5581 70.196C13.0915 71.316 12.8581 72.6507 12.8581 74.2C12.8581 75.7493 13.0915 77.084 13.5581 78.204C14.0248 79.324 14.6688 80.1827 15.4901 80.78C16.3115 81.3773 17.2635 81.676 18.3461 81.676ZM37.4463 84.336C35.6729 84.336 34.1423 83.916 32.8543 83.076C31.5849 82.2173 30.6049 81.032 29.9143 79.52C29.2423 77.9893 28.9063 76.216 28.9063 74.2C28.9063 72.184 29.2423 70.42 29.9143 68.908C30.6049 67.3773 31.5849 66.192 32.8543 65.352C34.1423 64.4933 35.6729 64.064 37.4463 64.064C39.2196 64.064 40.7409 64.4933 42.0103 65.352C43.2796 66.192 44.2503 67.3773 44.9223 68.908C45.6129 70.42 45.9583 72.184 45.9583 74.2C45.9583 76.216 45.6129 77.9893 44.9223 79.52C44.2503 81.032 43.2796 82.2173 42.0103 83.076C40.7409 83.916 39.2196 84.336 37.4463 84.336ZM37.4463 81.676C38.5103 81.676 39.4529 81.3773 40.2743 80.78C41.1143 80.1827 41.7676 79.324 42.2343 78.204C42.7009 77.084 42.9343 75.7493 42.9343 74.2C42.9343 72.6507 42.7009 71.316 42.2343 70.196C41.7676 69.076 41.1143 68.2173 40.2743 67.62C39.4529 67.0227 38.5103 66.724 37.4463 66.724C36.3636 66.724 35.4116 67.0227 34.5903 67.62C33.7689 68.2173 33.1249 69.076 32.6583 70.196C32.1916 71.316 31.9583 72.6507 31.9583 74.2C31.9583 75.7493 32.1916 77.084 32.6583 78.204C33.1249 79.324 33.7689 80.1827 34.5903 80.78C35.4116 81.3773 36.3636 81.676 37.4463 81.676ZM52.4864 73.752C51.6091 73.752 50.8158 73.556 50.1064 73.164C49.4158 72.772 48.8651 72.2213 48.4544 71.512C48.0438 70.784 47.8384 69.916 47.8384 68.908C47.8384 67.9187 48.0438 67.0693 48.4544 66.36C48.8651 65.632 49.4251 65.072 50.1344 64.68C50.8438 64.288 51.6371 64.092 52.5144 64.092C53.3731 64.092 54.1478 64.288 54.8384 64.68C55.5478 65.072 56.1078 65.632 56.5184 66.36C56.9291 67.0693 57.1344 67.9187 57.1344 68.908C57.1344 69.916 56.9291 70.784 56.5184 71.512C56.1078 72.2213 55.5478 72.772 54.8384 73.164C54.1478 73.556 53.3638 73.752 52.4864 73.752ZM51.0864 84L62.3144 64.4H65.2264L54.0264 84H51.0864ZM52.4864 71.624C53.0838 71.624 53.5971 71.4 54.0264 70.952C54.4744 70.4853 54.6984 69.804 54.6984 68.908C54.6984 68.012 54.4838 67.34 54.0544 66.892C53.6251 66.4253 53.1024 66.192 52.4864 66.192C51.8891 66.192 51.3664 66.4253 50.9184 66.892C50.4704 67.34 50.2464 68.012 50.2464 68.908C50.2464 69.804 50.4611 70.4853 50.8904 70.952C51.3384 71.4 51.8704 71.624 52.4864 71.624ZM63.9944 84.336C63.1171 84.336 62.3238 84.14 61.6144 83.748C60.9238 83.356 60.3731 82.8053 59.9624 82.096C59.5518 81.368 59.3464 80.5 59.3464 79.492C59.3464 78.5027 59.5518 77.644 59.9624 76.916C60.3731 76.188 60.9331 75.628 61.6424 75.236C62.3518 74.844 63.1451 74.648 64.0224 74.648C64.8811 74.648 65.6558 74.844 66.3464 75.236C67.0558 75.628 67.6158 76.188 68.0264 76.916C68.4371 77.644 68.6424 78.5027 68.6424 79.492C68.6424 80.5 68.4371 81.368 68.0264 82.096C67.6158 82.8053 67.0558 83.356 66.3464 83.748C65.6558 84.14 64.8718 84.336 63.9944 84.336ZM63.9944 82.18C64.5918 82.18 65.1051 81.956 65.5344 81.508C65.9824 81.06 66.2064 80.388 66.2064 79.492C66.2064 78.596 65.9918 77.924 65.5624 77.476C65.1331 77.0093 64.6104 76.776 63.9944 76.776C63.3971 76.776 62.8744 77.0093 62.4264 77.476C61.9784 77.924 61.7544 78.596 61.7544 79.492C61.7544 80.388 61.9691 81.06 62.3984 81.508C62.8464 81.956 63.3784 82.18 63.9944 82.18ZM82.2839 84.336C81.1079 84.336 80.1372 84.14 79.3719 83.748C78.6066 83.356 78.0372 82.8427 77.6639 82.208C77.2906 81.5547 77.1039 80.8453 77.1039 80.08C77.1039 78.736 77.6266 77.672 78.6719 76.888C79.7172 76.104 81.2106 75.712 83.1519 75.712H86.7919V75.46C86.7919 74.3773 86.4932 73.5653 85.8959 73.024C85.3172 72.4827 84.5612 72.212 83.6279 72.212C82.8066 72.212 82.0879 72.4173 81.4719 72.828C80.8746 73.22 80.5106 73.808 80.3799 74.592H77.4119C77.5052 73.584 77.8412 72.7253 78.4199 72.016C79.0172 71.288 79.7639 70.7373 80.6599 70.364C81.5746 69.972 82.5732 69.776 83.6559 69.776C85.5972 69.776 87.0999 70.2893 88.1639 71.316C89.2279 72.324 89.7599 73.7053 89.7599 75.46V84H87.1839L86.9319 81.62C86.5399 82.3853 85.9706 83.0293 85.2239 83.552C84.4772 84.0747 83.4972 84.336 82.2839 84.336ZM82.8719 81.928C83.6746 81.928 84.3466 81.7413 84.8879 81.368C85.4479 80.976 85.8772 80.4627 86.1759 79.828C86.4932 79.1933 86.6892 78.4933 86.7639 77.728H83.4599C82.2839 77.728 81.4439 77.9333 80.9399 78.344C80.4546 78.7547 80.2119 79.268 80.2119 79.884C80.2119 80.5187 80.4452 81.0227 80.9119 81.396C81.3972 81.7507 82.0506 81.928 82.8719 81.928ZM97.7845 84.336C96.1045 84.336 94.7792 83.8133 93.8085 82.768C92.8565 81.7227 92.3805 80.164 92.3805 78.092V70.112H95.3485V77.784C95.3485 80.472 96.4499 81.816 98.6525 81.816C99.7539 81.816 100.659 81.424 101.369 80.64C102.078 79.856 102.433 78.736 102.433 77.28V70.112H105.401V84H102.769L102.545 81.564C102.115 82.4227 101.481 83.104 100.641 83.608C99.8192 84.0933 98.8672 84.336 97.7845 84.336ZM114.44 84C113.077 84 111.995 83.6733 111.192 83.02C110.389 82.348 109.988 81.1627 109.988 79.464V72.604H107.608V70.112H109.988L110.352 66.584H112.956V70.112H116.876V72.604H112.956V79.464C112.956 80.2293 113.115 80.7613 113.432 81.06C113.768 81.34 114.337 81.48 115.14 81.48H116.736V84H114.44ZM125.517 84.336C124.192 84.336 122.997 84.0373 121.933 83.44C120.888 82.824 120.057 81.9747 119.441 80.892C118.825 79.7907 118.517 78.512 118.517 77.056C118.517 75.6 118.825 74.3307 119.441 73.248C120.076 72.1467 120.925 71.2973 121.989 70.7C123.053 70.084 124.238 69.776 125.545 69.776C126.87 69.776 128.056 70.084 129.101 70.7C130.165 71.2973 131.005 72.1467 131.621 73.248C132.256 74.3307 132.573 75.6 132.573 77.056C132.573 78.512 132.256 79.7907 131.621 80.892C131.005 81.9747 130.165 82.824 129.101 83.44C128.037 84.0373 126.842 84.336 125.517 84.336ZM125.517 81.788C126.226 81.788 126.88 81.6107 127.477 81.256C128.093 80.9013 128.588 80.3787 128.961 79.688C129.334 78.9787 129.521 78.1013 129.521 77.056C129.521 76.0107 129.334 75.1427 128.961 74.452C128.606 73.7427 128.121 73.2107 127.505 72.856C126.908 72.5013 126.254 72.324 125.545 72.324C124.836 72.324 124.173 72.5013 123.557 72.856C122.96 73.2107 122.474 73.7427 122.101 74.452C121.728 75.1427 121.541 76.0107 121.541 77.056C121.541 78.1013 121.728 78.9787 122.101 79.688C122.474 80.3787 122.96 80.9013 123.557 81.256C124.154 81.6107 124.808 81.788 125.517 81.788ZM135.223 84V70.112H137.855L138.107 72.072C138.555 71.3627 139.143 70.8027 139.871 70.392C140.617 69.9813 141.476 69.776 142.447 69.776C144.649 69.776 146.18 70.644 147.039 72.38C147.543 71.5773 148.215 70.9427 149.055 70.476C149.913 70.0093 150.837 69.776 151.827 69.776C153.563 69.776 154.925 70.2987 155.915 71.344C156.904 72.3893 157.399 73.948 157.399 76.02V84H154.431V76.328C154.431 73.64 153.404 72.296 151.351 72.296C150.305 72.296 149.447 72.688 148.775 73.472C148.121 74.256 147.795 75.376 147.795 76.832V84H144.827V76.328C144.827 73.64 143.791 72.296 141.719 72.296C140.692 72.296 139.843 72.688 139.171 73.472C138.517 74.256 138.191 75.376 138.191 76.832V84H135.223ZM165.015 84.336C163.839 84.336 162.868 84.14 162.103 83.748C161.338 83.356 160.768 82.8427 160.395 82.208C160.022 81.5547 159.835 80.8453 159.835 80.08C159.835 78.736 160.358 77.672 161.403 76.888C162.448 76.104 163.942 75.712 165.883 75.712H169.523V75.46C169.523 74.3773 169.224 73.5653 168.627 73.024C168.048 72.4827 167.292 72.212 166.359 72.212C165.538 72.212 164.819 72.4173 164.203 72.828C163.606 73.22 163.242 73.808 163.111 74.592H160.143C160.236 73.584 160.572 72.7253 161.151 72.016C161.748 71.288 162.495 70.7373 163.391 70.364C164.306 69.972 165.304 69.776 166.387 69.776C168.328 69.776 169.831 70.2893 170.895 71.316C171.959 72.324 172.491 73.7053 172.491 75.46V84H169.915L169.663 81.62C169.271 82.3853 168.702 83.0293 167.955 83.552C167.208 84.0747 166.228 84.336 165.015 84.336ZM165.603 81.928C166.406 81.928 167.078 81.7413 167.619 81.368C168.179 80.976 168.608 80.4627 168.907 79.828C169.224 79.1933 169.42 78.4933 169.495 77.728H166.191C165.015 77.728 164.175 77.9333 163.671 78.344C163.186 78.7547 162.943 79.268 162.943 79.884C162.943 80.5187 163.176 81.0227 163.643 81.396C164.128 81.7507 164.782 81.928 165.603 81.928ZM180.942 84C179.58 84 178.497 83.6733 177.694 83.02C176.892 82.348 176.49 81.1627 176.49 79.464V72.604H174.11V70.112H176.49L176.854 66.584H179.458V70.112H183.378V72.604H179.458V79.464C179.458 80.2293 179.617 80.7613 179.934 81.06C180.27 81.34 180.84 81.48 181.642 81.48H183.238V84H180.942ZM187.559 67.48C186.999 67.48 186.532 67.312 186.159 66.976C185.804 66.6213 185.627 66.1827 185.627 65.66C185.627 65.1373 185.804 64.708 186.159 64.372C186.532 64.0173 186.999 63.84 187.559 63.84C188.119 63.84 188.576 64.0173 188.931 64.372C189.304 64.708 189.491 65.1373 189.491 65.66C189.491 66.1827 189.304 66.6213 188.931 66.976C188.576 67.312 188.119 67.48 187.559 67.48ZM186.075 84V70.112H189.043V84H186.075ZM198.981 84.336C197.618 84.336 196.395 84.028 195.313 83.412C194.249 82.796 193.409 81.9467 192.793 80.864C192.195 79.7627 191.897 78.4933 191.897 77.056C191.897 75.6187 192.195 74.3587 192.793 73.276C193.409 72.1747 194.249 71.316 195.313 70.7C196.395 70.084 197.618 69.776 198.981 69.776C200.698 69.776 202.135 70.224 203.293 71.12C204.469 72.016 205.225 73.2293 205.561 74.76H202.453C202.266 73.9947 201.855 73.3973 201.221 72.968C200.586 72.5387 199.839 72.324 198.981 72.324C198.253 72.324 197.581 72.5107 196.965 72.884C196.349 73.2387 195.854 73.7707 195.481 74.48C195.107 75.1707 194.921 76.0293 194.921 77.056C194.921 78.0827 195.107 78.9507 195.481 79.66C195.854 80.3507 196.349 80.8827 196.965 81.256C197.581 81.6293 198.253 81.816 198.981 81.816C199.839 81.816 200.586 81.6013 201.221 81.172C201.855 80.7427 202.266 80.136 202.453 79.352H205.561C205.243 80.8453 204.497 82.0493 203.321 82.964C202.145 83.8787 200.698 84.336 198.981 84.336ZM219.418 84.336C218.242 84.336 217.272 84.14 216.506 83.748C215.741 83.356 215.172 82.8427 214.798 82.208C214.425 81.5547 214.238 80.8453 214.238 80.08C214.238 78.736 214.761 77.672 215.806 76.888C216.852 76.104 218.345 75.712 220.286 75.712H223.926V75.46C223.926 74.3773 223.628 73.5653 223.03 73.024C222.452 72.4827 221.696 72.212 220.762 72.212C219.941 72.212 219.222 72.4173 218.606 72.828C218.009 73.22 217.645 73.808 217.514 74.592H214.546C214.64 73.584 214.976 72.7253 215.554 72.016C216.152 71.288 216.898 70.7373 217.794 70.364C218.709 69.972 219.708 69.776 220.79 69.776C222.732 69.776 224.234 70.2893 225.298 71.316C226.362 72.324 226.894 73.7053 226.894 75.46V84H224.318L224.066 81.62C223.674 82.3853 223.105 83.0293 222.358 83.552C221.612 84.0747 220.632 84.336 219.418 84.336ZM220.006 81.928C220.809 81.928 221.481 81.7413 222.022 81.368C222.582 80.976 223.012 80.4627 223.31 79.828C223.628 79.1933 223.824 78.4933 223.898 77.728H220.594C219.418 77.728 218.578 77.9333 218.074 78.344C217.589 78.7547 217.346 79.268 217.346 79.884C217.346 80.5187 217.58 81.0227 218.046 81.396C218.532 81.7507 219.185 81.928 220.006 81.928ZM229.795 84V70.112H232.427L232.651 72.548C233.08 71.6893 233.706 71.0173 234.527 70.532C235.367 70.028 236.328 69.776 237.411 69.776C239.091 69.776 240.407 70.2987 241.359 71.344C242.33 72.3893 242.815 73.948 242.815 76.02V84H239.875V76.328C239.875 73.64 238.774 72.296 236.571 72.296C235.47 72.296 234.555 72.688 233.827 73.472C233.118 74.256 232.763 75.376 232.763 76.832V84H229.795ZM252.079 84.336C250.735 84.336 249.549 84.0187 248.523 83.384C247.496 82.7493 246.693 81.8813 246.115 80.78C245.536 79.6787 245.247 78.428 245.247 77.028C245.247 75.628 245.536 74.3867 246.115 73.304C246.693 72.2027 247.496 71.344 248.523 70.728C249.568 70.0933 250.763 69.776 252.107 69.776C253.208 69.776 254.169 69.9907 254.991 70.42C255.831 70.8493 256.484 71.456 256.951 72.24V63.84H259.919V84H257.259L256.951 81.844C256.503 82.4973 255.887 83.076 255.103 83.58C254.319 84.084 253.311 84.336 252.079 84.336ZM252.611 81.76C253.88 81.76 254.916 81.3213 255.719 80.444C256.54 79.5667 256.951 78.4373 256.951 77.056C256.951 75.656 256.54 74.5267 255.719 73.668C254.916 72.7907 253.88 72.352 252.611 72.352C251.341 72.352 250.296 72.7907 249.475 73.668C248.653 74.5267 248.243 75.656 248.243 77.056C248.243 77.9707 248.429 78.7827 248.803 79.492C249.176 80.2013 249.689 80.7613 250.343 81.172C251.015 81.564 251.771 81.76 252.611 81.76ZM270.295 84V72.604H268.307V70.112H270.295V68.096C270.295 66.584 270.669 65.5013 271.415 64.848C272.181 64.176 273.254 63.84 274.635 63.84H276.091V66.36H275.083C274.43 66.36 273.963 66.5 273.683 66.78C273.403 67.0413 273.263 67.4893 273.263 68.124V70.112H276.455V72.604H273.263V84H270.295ZM278.715 84V70.112H281.375L281.627 72.744C282.112 71.8293 282.784 71.1107 283.643 70.588C284.52 70.0467 285.575 69.776 286.807 69.776V72.884H285.995C285.174 72.884 284.436 73.024 283.783 73.304C283.148 73.5653 282.635 74.0227 282.243 74.676C281.87 75.3107 281.683 76.1973 281.683 77.336V84H278.715ZM294.905 84.336C293.542 84.336 292.329 84.0373 291.265 83.44C290.22 82.824 289.398 81.9747 288.801 80.892C288.204 79.8093 287.905 78.5493 287.905 77.112C287.905 75.656 288.194 74.3773 288.773 73.276C289.37 72.1747 290.192 71.316 291.237 70.7C292.301 70.084 293.533 69.776 294.933 69.776C296.296 69.776 297.481 70.084 298.489 70.7C299.497 71.2973 300.281 72.1 300.841 73.108C301.401 74.116 301.681 75.2267 301.681 76.44C301.681 76.6267 301.672 76.832 301.653 77.056C301.653 77.2613 301.644 77.4947 301.625 77.756H290.817C290.91 79.1 291.349 80.1267 292.133 80.836C292.936 81.5267 293.86 81.872 294.905 81.872C295.745 81.872 296.445 81.6853 297.005 81.312C297.584 80.92 298.013 80.3973 298.293 79.744H301.261C300.888 81.0507 300.141 82.1427 299.021 83.02C297.92 83.8973 296.548 84.336 294.905 84.336ZM294.905 72.212C293.916 72.212 293.038 72.5107 292.273 73.108C291.508 73.6867 291.041 74.564 290.873 75.74H298.713C298.657 74.6573 298.274 73.7987 297.565 73.164C296.856 72.5293 295.969 72.212 294.905 72.212ZM310.697 84.336C309.334 84.336 308.121 84.0373 307.057 83.44C306.011 82.824 305.19 81.9747 304.593 80.892C303.995 79.8093 303.697 78.5493 303.697 77.112C303.697 75.656 303.986 74.3773 304.565 73.276C305.162 72.1747 305.983 71.316 307.029 70.7C308.093 70.084 309.325 69.776 310.725 69.776C312.087 69.776 313.273 70.084 314.281 70.7C315.289 71.2973 316.073 72.1 316.633 73.108C317.193 74.116 317.473 75.2267 317.473 76.44C317.473 76.6267 317.463 76.832 317.445 77.056C317.445 77.2613 317.435 77.4947 317.417 77.756H306.609C306.702 79.1 307.141 80.1267 307.925 80.836C308.727 81.5267 309.651 81.872 310.697 81.872C311.537 81.872 312.237 81.6853 312.797 81.312C313.375 80.92 313.805 80.3973 314.085 79.744H317.053C316.679 81.0507 315.933 82.1427 314.813 83.02C313.711 83.8973 312.339 84.336 310.697 84.336ZM310.697 72.212C309.707 72.212 308.83 72.5107 308.065 73.108C307.299 73.6867 306.833 74.564 306.665 75.74H314.505C314.449 74.6573 314.066 73.7987 313.357 73.164C312.647 72.5293 311.761 72.212 310.697 72.212Z" fill="#566474"/>
<path d="M1.968 9.4H9.936C12.656 9.4 14.64 10.04 15.888 11.32C17.136 12.568 17.76 14.504 17.76 17.128V18.472C17.76 20.2 17.472 21.608 16.896 22.696C16.352 23.784 15.504 24.568 14.352 25.048V25.144C16.976 26.04 18.288 28.376 18.288 32.152V35.032C18.288 37.624 17.6 39.608 16.224 40.984C14.88 42.328 12.896 43 10.272 43H1.968V9.4ZM9.312 23.08C10.368 23.08 11.152 22.808 11.664 22.264C12.208 21.72 12.48 20.808 12.48 19.528V17.656C12.48 16.44 12.256 15.56 11.808 15.016C11.392 14.472 10.72 14.2 9.792 14.2H7.248V23.08H9.312ZM10.272 38.2C11.2 38.2 11.888 37.96 12.336 37.48C12.784 36.968 13.008 36.104 13.008 34.888V31.96C13.008 30.424 12.736 29.368 12.192 28.792C11.68 28.184 10.816 27.88 9.6 27.88H7.248V38.2H10.272ZM24.4943 9.4H31.6463L37.1183 43H31.8383L30.8783 36.328V36.424H24.8783L23.9183 43H19.0223L24.4943 9.4ZM30.2543 31.864L27.9023 15.256H27.8063L25.5023 31.864H30.2543ZM46.0661 43.48C43.5381 43.48 41.6021 42.76 40.2581 41.32C38.9461 39.88 38.2901 37.848 38.2901 35.224V17.176C38.2901 14.552 38.9461 12.52 40.2581 11.08C41.6021 9.64 43.5381 8.92 46.0661 8.92C48.5941 8.92 50.5141 9.64 51.8261 11.08C53.1701 12.52 53.8421 14.552 53.8421 17.176V20.728H48.8501V16.84C48.8501 14.76 47.9701 13.72 46.2101 13.72C44.4501 13.72 43.5701 14.76 43.5701 16.84V35.608C43.5701 37.656 44.4501 38.68 46.2101 38.68C47.9701 38.68 48.8501 37.656 48.8501 35.608V30.472H53.8421V35.224C53.8421 37.848 53.1701 39.88 51.8261 41.32C50.5141 42.76 48.5941 43.48 46.0661 43.48ZM56.0411 9.4H61.3211V23.56L68.0411 9.4H73.3211L67.0331 21.736L73.4171 43H67.8971L63.4331 28.024L61.3211 32.296V43H56.0411V9.4ZM81.6941 43.48C79.1341 43.48 77.1821 42.76 75.8381 41.32C74.4941 39.848 73.8221 37.752 73.8221 35.032V17.368C73.8221 14.648 74.4941 12.568 75.8381 11.128C77.1821 9.656 79.1341 8.92 81.6941 8.92C84.2541 8.92 86.2061 9.656 87.5501 11.128C88.8941 12.568 89.5661 14.648 89.5661 17.368V20.248H84.5741V17.032C84.5741 14.824 83.6621 13.72 81.8381 13.72C80.0141 13.72 79.1021 14.824 79.1021 17.032V35.416C79.1021 37.592 80.0141 38.68 81.8381 38.68C83.6621 38.68 84.5741 37.592 84.5741 35.416V28.84H81.9341V24.04H89.5661V35.032C89.5661 37.752 88.8941 39.848 87.5501 41.32C86.2061 42.76 84.2541 43.48 81.6941 43.48ZM91.9961 9.4H99.8201C102.54 9.4 104.524 10.04 105.772 11.32C107.02 12.568 107.644 14.504 107.644 17.128V19.192C107.644 22.68 106.492 24.888 104.188 25.816V25.912C105.468 26.296 106.364 27.08 106.876 28.264C107.42 29.448 107.692 31.032 107.692 33.016V38.92C107.692 39.88 107.724 40.664 107.788 41.272C107.852 41.848 108.012 42.424 108.268 43H102.892C102.7 42.456 102.572 41.944 102.508 41.464C102.444 40.984 102.412 40.12 102.412 38.872V32.728C102.412 31.192 102.156 30.12 101.644 29.512C101.164 28.904 100.316 28.6 99.1001 28.6H97.2761V43H91.9961V9.4ZM99.1961 23.8C100.252 23.8 101.036 23.528 101.548 22.984C102.092 22.44 102.364 21.528 102.364 20.248V17.656C102.364 16.44 102.14 15.56 101.692 15.016C101.276 14.472 100.604 14.2 99.6761 14.2H97.2761V23.8H99.1961ZM118.027 43.48C115.435 43.48 113.451 42.744 112.075 41.272C110.699 39.8 110.011 37.72 110.011 35.032V17.368C110.011 14.68 110.699 12.6 112.075 11.128C113.451 9.656 115.435 8.92 118.027 8.92C120.619 8.92 122.603 9.656 123.979 11.128C125.355 12.6 126.043 14.68 126.043 17.368V35.032C126.043 37.72 125.355 39.8 123.979 41.272C122.603 42.744 120.619 43.48 118.027 43.48ZM118.027 38.68C119.851 38.68 120.763 37.576 120.763 35.368V17.032C120.763 14.824 119.851 13.72 118.027 13.72C116.203 13.72 115.291 14.824 115.291 17.032V35.368C115.291 37.576 116.203 38.68 118.027 38.68ZM136.334 43.48C133.774 43.48 131.822 42.76 130.478 41.32C129.134 39.848 128.462 37.752 128.462 35.032V9.4H133.742V35.416C133.742 36.568 133.966 37.4 134.414 37.912C134.894 38.424 135.566 38.68 136.43 38.68C137.294 38.68 137.95 38.424 138.398 37.912C138.878 37.4 139.118 36.568 139.118 35.416V9.4H144.206V35.032C144.206 37.752 143.534 39.848 142.19 41.32C140.846 42.76 138.894 43.48 136.334 43.48ZM147.007 9.4H153.631L158.767 29.512H158.863V9.4H163.567V43H158.143L151.807 18.472H151.711V43H147.007V9.4ZM166.531 9.4H174.595C177.219 9.4 179.187 10.104 180.499 11.512C181.811 12.92 182.467 14.984 182.467 17.704V34.696C182.467 37.416 181.811 39.48 180.499 40.888C179.187 42.296 177.219 43 174.595 43H166.531V9.4ZM174.499 38.2C175.363 38.2 176.019 37.944 176.467 37.432C176.947 36.92 177.187 36.088 177.187 34.936V17.464C177.187 16.312 176.947 15.48 176.467 14.968C176.019 14.456 175.363 14.2 174.499 14.2H171.811V38.2H174.499ZM191.799 9.4H197.079V43H191.799V9.4ZM200.073 9.4H207.609L210.969 33.448H211.065L214.425 9.4H221.961V43H216.969V17.56H216.873L213.033 43H208.617L204.777 17.56H204.681V43H200.073V9.4ZM229.021 9.4H236.173L241.645 43H236.365L235.405 36.328V36.424H229.405L228.445 43H223.549L229.021 9.4ZM234.781 31.864L232.429 15.256H232.333L230.029 31.864H234.781ZM250.641 43.48C248.081 43.48 246.129 42.76 244.785 41.32C243.441 39.848 242.769 37.752 242.769 35.032V17.368C242.769 14.648 243.441 12.568 244.785 11.128C246.129 9.656 248.081 8.92 250.641 8.92C253.201 8.92 255.153 9.656 256.497 11.128C257.841 12.568 258.513 14.648 258.513 17.368V20.248H253.521V17.032C253.521 14.824 252.609 13.72 250.785 13.72C248.961 13.72 248.049 14.824 248.049 17.032V35.416C248.049 37.592 248.961 38.68 250.785 38.68C252.609 38.68 253.521 37.592 253.521 35.416V28.84H250.881V24.04H258.513V35.032C258.513 37.752 257.841 39.848 256.497 41.32C255.153 42.76 253.201 43.48 250.641 43.48ZM260.943 9.4H275.343V14.2H266.223V23.08H273.471V27.88H266.223V38.2H275.343V43H260.943V9.4ZM284.148 9.4H291.972C294.692 9.4 296.676 10.04 297.924 11.32C299.172 12.568 299.796 14.504 299.796 17.128V19.192C299.796 22.68 298.644 24.888 296.34 25.816V25.912C297.62 26.296 298.516 27.08 299.028 28.264C299.572 29.448 299.844 31.032 299.844 33.016V38.92C299.844 39.88 299.876 40.664 299.94 41.272C300.004 41.848 300.164 42.424 300.42 43H295.044C294.852 42.456 294.724 41.944 294.66 41.464C294.596 40.984 294.564 40.12 294.564 38.872V32.728C294.564 31.192 294.308 30.12 293.796 29.512C293.316 28.904 292.468 28.6 291.252 28.6H289.428V43H284.148V9.4ZM291.348 23.8C292.404 23.8 293.188 23.528 293.7 22.984C294.244 22.44 294.516 21.528 294.516 20.248V17.656C294.516 16.44 294.292 15.56 293.844 15.016C293.428 14.472 292.756 14.2 291.828 14.2H289.428V23.8H291.348ZM302.547 9.4H316.947V14.2H307.827V23.08H315.075V27.88H307.827V38.2H316.947V43H302.547V9.4ZM319.025 9.4H326.561L329.921 33.448H330.017L333.377 9.4H340.913V43H335.921V17.56H335.825L331.985 43H327.569L323.729 17.56H323.633V43H319.025V9.4ZM351.525 43.48C348.933 43.48 346.949 42.744 345.573 41.272C344.197 39.8 343.509 37.72 343.509 35.032V17.368C343.509 14.68 344.197 12.6 345.573 11.128C346.949 9.656 348.933 8.92 351.525 8.92C354.117 8.92 356.101 9.656 357.477 11.128C358.853 12.6 359.541 14.68 359.541 17.368V35.032C359.541 37.72 358.853 39.8 357.477 41.272C356.101 42.744 354.117 43.48 351.525 43.48ZM351.525 38.68C353.349 38.68 354.261 37.576 354.261 35.368V17.032C354.261 14.824 353.349 13.72 351.525 13.72C349.701 13.72 348.789 14.824 348.789 17.032V35.368C348.789 37.576 349.701 38.68 351.525 38.68ZM360.666 9.4H365.994L369.45 35.464H369.546L373.002 9.4H377.85L372.762 43H365.754L360.666 9.4ZM379.426 9.4H393.826V14.2H384.706V23.08H391.954V27.88H384.706V38.2H393.826V43H379.426V9.4Z" fill="#1E272E"/>
</svg>
