<svg width="400" height="44" viewBox="0 0 400 44" fill="none" xmlns="http://www.w3.org/2000/svg">
<rect width="400" height="44" rx="5" fill="#142683"/>
<path d="M149.088 27V15.8H151.136V25.4H156.096V27H149.088ZM160.981 27.192C160.213 27.192 159.52 27.016 158.901 26.664C158.293 26.312 157.808 25.8267 157.445 25.208C157.093 24.5787 156.917 23.8533 156.917 23.032C156.917 22.2107 157.098 21.4907 157.461 20.872C157.824 20.2427 158.309 19.752 158.917 19.4C159.536 19.048 160.229 18.872 160.997 18.872C161.754 18.872 162.437 19.048 163.045 19.4C163.664 19.752 164.149 20.2427 164.501 20.872C164.864 21.4907 165.045 22.2107 165.045 23.032C165.045 23.8533 164.864 24.5787 164.501 25.208C164.149 25.8267 163.664 26.312 163.045 26.664C162.426 27.016 161.738 27.192 160.981 27.192ZM160.981 25.416C161.514 25.416 161.978 25.2187 162.373 24.824C162.768 24.4187 162.965 23.8213 162.965 23.032C162.965 22.2427 162.768 21.6507 162.373 21.256C161.978 20.8507 161.52 20.648 160.997 20.648C160.453 20.648 159.984 20.8507 159.589 21.256C159.205 21.6507 159.013 22.2427 159.013 23.032C159.013 23.8213 159.205 24.4187 159.589 24.824C159.984 25.2187 160.448 25.416 160.981 25.416ZM169.416 24.632C169.032 24.632 168.675 24.5893 168.344 24.504L167.752 25.096C167.934 25.192 168.179 25.272 168.488 25.336C168.798 25.4 169.299 25.464 169.992 25.528C171.048 25.624 171.816 25.8747 172.296 26.28C172.776 26.6853 173.016 27.2453 173.016 27.96C173.016 28.4293 172.888 28.872 172.632 29.288C172.376 29.7147 171.982 30.056 171.448 30.312C170.915 30.5787 170.232 30.712 169.4 30.712C168.27 30.712 167.358 30.4987 166.664 30.072C165.971 29.656 165.624 29.0267 165.624 28.184C165.624 27.4693 165.971 26.8507 166.664 26.328C166.451 26.232 166.264 26.1307 166.104 26.024C165.955 25.9173 165.822 25.8053 165.704 25.688V25.32L167.096 23.848C166.478 23.304 166.168 22.6053 166.168 21.752C166.168 21.2187 166.296 20.7333 166.552 20.296C166.819 19.8587 167.192 19.512 167.672 19.256C168.152 19 168.734 18.872 169.416 18.872C169.864 18.872 170.28 18.936 170.664 19.064H173.672V20.312L172.312 20.408C172.526 20.8133 172.632 21.2613 172.632 21.752C172.632 22.2853 172.504 22.7707 172.248 23.208C171.992 23.6453 171.619 23.992 171.128 24.248C170.648 24.504 170.078 24.632 169.416 24.632ZM169.416 23.064C169.832 23.064 170.174 22.952 170.44 22.728C170.718 22.504 170.856 22.184 170.856 21.768C170.856 21.352 170.718 21.032 170.44 20.808C170.174 20.584 169.832 20.472 169.416 20.472C168.979 20.472 168.627 20.584 168.36 20.808C168.094 21.032 167.96 21.352 167.96 21.768C167.96 22.184 168.094 22.504 168.36 22.728C168.627 22.952 168.979 23.064 169.416 23.064ZM167.496 27.976C167.496 28.3707 167.678 28.664 168.04 28.856C168.414 29.0587 168.867 29.16 169.4 29.16C169.912 29.16 170.328 29.0533 170.648 28.84C170.968 28.6373 171.128 28.36 171.128 28.008C171.128 27.72 171.022 27.48 170.808 27.288C170.606 27.096 170.195 26.9787 169.576 26.936C169.139 26.904 168.734 26.856 168.36 26.792C168.051 26.9627 167.827 27.1493 167.688 27.352C167.56 27.5547 167.496 27.7627 167.496 27.976ZM175.95 17.832C175.576 17.832 175.267 17.72 175.022 17.496C174.787 17.272 174.67 16.9893 174.67 16.648C174.67 16.3067 174.787 16.0293 175.022 15.816C175.267 15.592 175.576 15.48 175.95 15.48C176.323 15.48 176.627 15.592 176.862 15.816C177.107 16.0293 177.23 16.3067 177.23 16.648C177.23 16.9893 177.107 17.272 176.862 17.496C176.627 17.72 176.323 17.832 175.95 17.832ZM174.926 27V19.064H176.974V27H174.926ZM178.791 27V19.064H180.599L180.759 20.408C181.005 19.9387 181.357 19.5653 181.815 19.288C182.285 19.0107 182.834 18.872 183.463 18.872C184.445 18.872 185.207 19.1813 185.751 19.8C186.295 20.4187 186.567 21.3253 186.567 22.52V27H184.519V22.712C184.519 22.0293 184.381 21.5067 184.103 21.144C183.826 20.7813 183.394 20.6 182.807 20.6C182.231 20.6 181.757 20.8027 181.383 21.208C181.021 21.6133 180.839 22.1787 180.839 22.904V27H178.791ZM191.026 28.776L195.026 14.568H197.026L193.01 28.776H191.026ZM205.477 27.192C204.656 27.192 203.93 27.0533 203.301 26.776C202.672 26.488 202.176 26.0827 201.813 25.56C201.45 25.0267 201.264 24.3813 201.253 23.624H203.413C203.434 24.1467 203.621 24.5893 203.973 24.952C204.336 25.304 204.832 25.48 205.461 25.48C206.005 25.48 206.437 25.352 206.757 25.096C207.077 24.8293 207.237 24.4773 207.237 24.04C207.237 23.5813 207.093 23.224 206.805 22.968C206.528 22.712 206.154 22.504 205.685 22.344C205.216 22.184 204.714 22.0133 204.181 21.832C203.317 21.5333 202.656 21.1493 202.197 20.68C201.749 20.2107 201.525 19.5867 201.525 18.808C201.514 18.1467 201.669 17.5813 201.989 17.112C202.32 16.632 202.768 16.264 203.333 16.008C203.898 15.7413 204.549 15.608 205.285 15.608C206.032 15.608 206.688 15.7413 207.253 16.008C207.829 16.2747 208.277 16.648 208.597 17.128C208.928 17.608 209.104 18.1787 209.125 18.84H206.933C206.922 18.4453 206.768 18.0987 206.469 17.8C206.181 17.4907 205.776 17.336 205.253 17.336C204.805 17.3253 204.426 17.4373 204.117 17.672C203.818 17.896 203.669 18.2267 203.669 18.664C203.669 19.0373 203.786 19.336 204.021 19.56C204.256 19.7733 204.576 19.9547 204.981 20.104C205.386 20.2533 205.85 20.4133 206.373 20.584C206.928 20.776 207.434 21 207.893 21.256C208.352 21.512 208.72 21.8533 208.997 22.28C209.274 22.696 209.413 23.2347 209.413 23.896C209.413 24.4827 209.264 25.0267 208.965 25.528C208.666 26.0293 208.224 26.4347 207.637 26.744C207.05 27.0427 206.33 27.192 205.477 27.192ZM211.936 17.832C211.563 17.832 211.253 17.72 211.008 17.496C210.773 17.272 210.656 16.9893 210.656 16.648C210.656 16.3067 210.773 16.0293 211.008 15.816C211.253 15.592 211.563 15.48 211.936 15.48C212.309 15.48 212.613 15.592 212.848 15.816C213.093 16.0293 213.216 16.3067 213.216 16.648C213.216 16.9893 213.093 17.272 212.848 17.496C212.613 17.72 212.309 17.832 211.936 17.832ZM210.912 27V19.064H212.96V27H210.912ZM218.138 24.632C217.754 24.632 217.396 24.5893 217.066 24.504L216.474 25.096C216.655 25.192 216.9 25.272 217.21 25.336C217.519 25.4 218.02 25.464 218.714 25.528C219.77 25.624 220.538 25.8747 221.018 26.28C221.498 26.6853 221.738 27.2453 221.738 27.96C221.738 28.4293 221.61 28.872 221.354 29.288C221.098 29.7147 220.703 30.056 220.17 30.312C219.636 30.5787 218.954 30.712 218.122 30.712C216.991 30.712 216.079 30.4987 215.386 30.072C214.692 29.656 214.346 29.0267 214.346 28.184C214.346 27.4693 214.692 26.8507 215.386 26.328C215.172 26.232 214.986 26.1307 214.826 26.024C214.676 25.9173 214.543 25.8053 214.426 25.688V25.32L215.818 23.848C215.199 23.304 214.89 22.6053 214.89 21.752C214.89 21.2187 215.018 20.7333 215.274 20.296C215.54 19.8587 215.914 19.512 216.394 19.256C216.874 19 217.455 18.872 218.138 18.872C218.586 18.872 219.002 18.936 219.386 19.064H222.394V20.312L221.034 20.408C221.247 20.8133 221.354 21.2613 221.354 21.752C221.354 22.2853 221.226 22.7707 220.97 23.208C220.714 23.6453 220.34 23.992 219.85 24.248C219.37 24.504 218.799 24.632 218.138 24.632ZM218.138 23.064C218.554 23.064 218.895 22.952 219.162 22.728C219.439 22.504 219.578 22.184 219.578 21.768C219.578 21.352 219.439 21.032 219.162 20.808C218.895 20.584 218.554 20.472 218.138 20.472C217.7 20.472 217.348 20.584 217.082 20.808C216.815 21.032 216.682 21.352 216.682 21.768C216.682 22.184 216.815 22.504 217.082 22.728C217.348 22.952 217.7 23.064 218.138 23.064ZM216.218 27.976C216.218 28.3707 216.399 28.664 216.762 28.856C217.135 29.0587 217.588 29.16 218.122 29.16C218.634 29.16 219.05 29.0533 219.37 28.84C219.69 28.6373 219.85 28.36 219.85 28.008C219.85 27.72 219.743 27.48 219.53 27.288C219.327 27.096 218.916 26.9787 218.298 26.936C217.86 26.904 217.455 26.856 217.082 26.792C216.772 26.9627 216.548 27.1493 216.41 27.352C216.282 27.5547 216.218 27.7627 216.218 27.976ZM223.567 27V19.064H225.375L225.535 20.408C225.78 19.9387 226.132 19.5653 226.591 19.288C227.06 19.0107 227.61 18.872 228.239 18.872C229.22 18.872 229.983 19.1813 230.527 19.8C231.071 20.4187 231.343 21.3253 231.343 22.52V27H229.295V22.712C229.295 22.0293 229.156 21.5067 228.879 21.144C228.602 20.7813 228.17 20.6 227.583 20.6C227.007 20.6 226.532 20.8027 226.159 21.208C225.796 21.6133 225.615 22.1787 225.615 22.904V27H223.567ZM235.957 27.192C234.965 27.192 234.197 26.8827 233.653 26.264C233.12 25.6453 232.853 24.7387 232.853 23.544V19.064H234.885V23.352C234.885 24.0347 235.024 24.5573 235.301 24.92C235.579 25.2827 236.016 25.464 236.613 25.464C237.179 25.464 237.643 25.2613 238.005 24.856C238.379 24.4507 238.565 23.8853 238.565 23.16V19.064H240.613V27H238.805L238.645 25.656C238.4 26.1253 238.043 26.4987 237.573 26.776C237.115 27.0533 236.576 27.192 235.957 27.192ZM242.396 30.52V19.064H244.22L244.444 20.2C244.7 19.848 245.036 19.5387 245.452 19.272C245.878 19.0053 246.428 18.872 247.1 18.872C247.846 18.872 248.513 19.0533 249.1 19.416C249.686 19.7787 250.15 20.2747 250.492 20.904C250.833 21.5333 251.004 22.248 251.004 23.048C251.004 23.848 250.833 24.5627 250.492 25.192C250.15 25.8107 249.686 26.3013 249.1 26.664C248.513 27.016 247.846 27.192 247.1 27.192C246.502 27.192 245.98 27.08 245.532 26.856C245.084 26.632 244.721 26.3173 244.444 25.912V30.52H242.396ZM246.668 25.4C247.318 25.4 247.857 25.1813 248.284 24.744C248.71 24.3067 248.924 23.7413 248.924 23.048C248.924 22.3547 248.71 21.784 248.284 21.336C247.857 20.888 247.318 20.664 246.668 20.664C246.006 20.664 245.462 20.888 245.036 21.336C244.62 21.7733 244.412 22.3387 244.412 23.032C244.412 23.7253 244.62 24.296 245.036 24.744C245.462 25.1813 246.006 25.4 246.668 25.4Z" fill="white"/>
</svg>
