<svg width="87" height="16" viewBox="0 0 87 16" fill="none" xmlns="http://www.w3.org/2000/svg">
<path d="M0.136 12V0.799999H2.136L5.928 8.256L9.704 0.799999H11.704V12H10.008V3.728L6.584 10.4H5.272L1.832 3.744V12H0.136ZM14.5238 15.52L16.4278 11.344H15.9638L12.8278 4.064H14.6678L17.0998 9.936L19.6438 4.064H21.4358L16.3158 15.52H14.5238ZM25.5654 12L29.6934 0.799999H31.5494L35.6454 12H33.8534L32.8934 9.264H28.3174L27.3574 12H25.5654ZM28.7974 7.92H32.4134L30.6054 2.816L28.7974 7.92ZM40.177 12.192C39.3983 12.192 38.6997 12.016 38.081 11.664C37.473 11.312 36.993 10.8267 36.641 10.208C36.2997 9.57867 36.129 8.85333 36.129 8.032C36.129 7.21067 36.2997 6.49067 36.641 5.872C36.993 5.24267 37.473 4.752 38.081 4.4C38.6997 4.048 39.3983 3.872 40.177 3.872C41.1583 3.872 41.9797 4.128 42.641 4.64C43.313 5.152 43.745 5.84533 43.937 6.72H42.161C42.0543 6.28267 41.8197 5.94133 41.457 5.696C41.0943 5.45067 40.6677 5.328 40.177 5.328C39.761 5.328 39.377 5.43467 39.025 5.648C38.673 5.85067 38.3903 6.15467 38.177 6.56C37.9637 6.95467 37.857 7.44533 37.857 8.032C37.857 8.61867 37.9637 9.11467 38.177 9.52C38.3903 9.91467 38.673 10.2187 39.025 10.432C39.377 10.6453 39.761 10.752 40.177 10.752C40.6677 10.752 41.0943 10.6293 41.457 10.384C41.8197 10.1387 42.0543 9.792 42.161 9.344H43.937C43.7557 10.1973 43.329 10.8853 42.657 11.408C41.985 11.9307 41.1583 12.192 40.177 12.192ZM49.2164 12.192C48.4377 12.192 47.739 12.016 47.1204 11.664C46.5124 11.312 46.0324 10.8267 45.6804 10.208C45.339 9.57867 45.1684 8.85333 45.1684 8.032C45.1684 7.21067 45.339 6.49067 45.6804 5.872C46.0324 5.24267 46.5124 4.752 47.1204 4.4C47.739 4.048 48.4377 3.872 49.2164 3.872C50.1977 3.872 51.019 4.128 51.6804 4.64C52.3524 5.152 52.7844 5.84533 52.9764 6.72H51.2004C51.0937 6.28267 50.859 5.94133 50.4964 5.696C50.1337 5.45067 49.707 5.328 49.2164 5.328C48.8004 5.328 48.4164 5.43467 48.0644 5.648C47.7124 5.85067 47.4297 6.15467 47.2164 6.56C47.003 6.95467 46.8964 7.44533 46.8964 8.032C46.8964 8.61867 47.003 9.11467 47.2164 9.52C47.4297 9.91467 47.7124 10.2187 48.0644 10.432C48.4164 10.6453 48.8004 10.752 49.2164 10.752C49.707 10.752 50.1337 10.6293 50.4964 10.384C50.859 10.1387 51.0937 9.792 51.2004 9.344H52.9764C52.795 10.1973 52.3684 10.8853 51.6964 11.408C51.0244 11.9307 50.1977 12.192 49.2164 12.192ZM58.2078 12.192C57.4504 12.192 56.7678 12.0213 56.1598 11.68C55.5624 11.328 55.0878 10.8427 54.7358 10.224C54.3838 9.59467 54.2078 8.864 54.2078 8.032C54.2078 7.2 54.3838 6.47467 54.7358 5.856C55.0984 5.22667 55.5838 4.74133 56.1918 4.4C56.7998 4.048 57.4771 3.872 58.2238 3.872C58.9811 3.872 59.6584 4.048 60.2558 4.4C60.8638 4.74133 61.3438 5.22667 61.6958 5.856C62.0584 6.47467 62.2398 7.2 62.2398 8.032C62.2398 8.864 62.0584 9.59467 61.6958 10.224C61.3438 10.8427 60.8638 11.328 60.2558 11.68C59.6478 12.0213 58.9651 12.192 58.2078 12.192ZM58.2078 10.736C58.6131 10.736 58.9864 10.6347 59.3278 10.432C59.6798 10.2293 59.9624 9.93067 60.1758 9.536C60.3891 9.13067 60.4958 8.62933 60.4958 8.032C60.4958 7.43467 60.3891 6.93867 60.1758 6.544C59.9731 6.13867 59.6958 5.83467 59.3438 5.632C59.0024 5.42933 58.6291 5.328 58.2238 5.328C57.8184 5.328 57.4398 5.42933 57.0878 5.632C56.7464 5.83467 56.4691 6.13867 56.2558 6.544C56.0424 6.93867 55.9358 7.43467 55.9358 8.032C55.9358 8.62933 56.0424 9.13067 56.2558 9.536C56.4691 9.93067 56.7464 10.2293 57.0878 10.432C57.4291 10.6347 57.8024 10.736 58.2078 10.736ZM66.6819 12.192C65.7219 12.192 64.9645 11.8933 64.4099 11.296C63.8659 10.6987 63.5939 9.808 63.5939 8.624V4.064H65.2899V8.448C65.2899 9.984 65.9192 10.752 67.1779 10.752C67.8072 10.752 68.3245 10.528 68.7299 10.08C69.1352 9.632 69.3379 8.992 69.3379 8.16V4.064H71.0339V12H69.5299L69.4019 10.608C69.1565 11.0987 68.7939 11.488 68.3139 11.776C67.8445 12.0533 67.3005 12.192 66.6819 12.192ZM72.8714 12V4.064H74.3754L74.5034 5.456C74.7487 4.96533 75.106 4.58133 75.5754 4.304C76.0554 4.016 76.6047 3.872 77.2234 3.872C78.1834 3.872 78.9354 4.17067 79.4794 4.768C80.034 5.36533 80.3114 6.256 80.3114 7.44V12H78.6314V7.616C78.6314 6.08 78.002 5.312 76.7434 5.312C76.114 5.312 75.5914 5.536 75.1754 5.984C74.77 6.432 74.5674 7.072 74.5674 7.904V12H72.8714ZM85.3169 12C84.5382 12 83.9195 11.8133 83.4609 11.44C83.0022 11.056 82.7729 10.3787 82.7729 9.408V5.488H81.4129V4.064H82.7729L82.9809 2.048H84.4689V4.064H86.7089V5.488H84.4689V9.408C84.4689 9.84533 84.5595 10.1493 84.7409 10.32C84.9329 10.48 85.2582 10.56 85.7169 10.56H86.6289V12H85.3169Z" fill="#566474"/>
</svg>
