<svg width="56" height="16" viewBox="0 0 56 16" fill="none" xmlns="http://www.w3.org/2000/svg">
<path d="M0.136 12V0.799999H2.136L5.928 8.256L9.704 0.799999H11.704V12H10.008V3.728L6.584 10.4H5.272L1.832 3.744V12H0.136ZM14.5238 15.52L16.4278 11.344H15.9638L12.8278 4.064H14.6678L17.0998 9.936L19.6438 4.064H21.4358L16.3158 15.52H14.5238ZM25.5654 12L29.6934 0.799999H31.5494L35.6454 12H33.8534L32.8934 9.264H28.3174L27.3574 12H25.5654ZM28.7974 7.92H32.4134L30.6054 2.816L28.7974 7.92ZM36.8873 12V0.799999H40.8073C41.6819 0.799999 42.4073 0.949333 42.9833 1.248C43.5593 1.536 43.9859 1.936 44.2633 2.448C44.5513 2.94933 44.6953 3.52 44.6953 4.16C44.6953 4.768 44.5566 5.328 44.2793 5.84C44.0126 6.34133 43.5913 6.74133 43.0153 7.04C42.4393 7.33867 41.7033 7.488 40.8073 7.488H38.5833V12H36.8873ZM38.5833 6.096H40.7273C41.5273 6.096 42.0979 5.92533 42.4393 5.584C42.7913 5.232 42.9673 4.75733 42.9673 4.16C42.9673 3.54133 42.7913 3.06133 42.4393 2.72C42.0979 2.368 41.5273 2.192 40.7273 2.192H38.5833V6.096ZM46.0516 12V0.799999H47.7476V12H46.0516ZM52.8044 12.192C51.8017 12.192 50.975 11.9467 50.3244 11.456C49.6737 10.9653 49.3004 10.3147 49.2044 9.504H50.9164C51.0017 9.86667 51.2044 10.1813 51.5244 10.448C51.8444 10.704 52.2657 10.832 52.7884 10.832C53.3004 10.832 53.6737 10.7253 53.9084 10.512C54.143 10.2987 54.2604 10.0533 54.2604 9.776C54.2604 9.37067 54.095 9.09867 53.7644 8.96C53.4444 8.81067 52.9964 8.67733 52.4204 8.56C51.9724 8.464 51.5244 8.336 51.0764 8.176C50.639 8.016 50.271 7.792 49.9724 7.504C49.6844 7.20533 49.5404 6.80533 49.5404 6.304C49.5404 5.61067 49.807 5.03467 50.3404 4.576C50.8737 4.10667 51.6204 3.872 52.5804 3.872C53.4657 3.872 54.1804 4.08533 54.7244 4.512C55.279 4.93867 55.6044 5.54133 55.7004 6.32H54.0684C54.015 5.97867 53.855 5.712 53.5884 5.52C53.3324 5.328 52.9857 5.232 52.5484 5.232C52.1217 5.232 51.791 5.32267 51.5564 5.504C51.3217 5.67467 51.2044 5.89867 51.2044 6.176C51.2044 6.45333 51.3644 6.672 51.6844 6.832C52.015 6.992 52.447 7.136 52.9804 7.264C53.5137 7.38133 54.0044 7.52 54.4524 7.68C54.911 7.82933 55.279 8.05333 55.5564 8.352C55.8337 8.65067 55.9724 9.088 55.9724 9.664C55.983 10.3893 55.7004 10.992 55.1244 11.472C54.559 11.952 53.7857 12.192 52.8044 12.192Z" fill="#566474"/>
</svg>
