<svg width="379" height="98" viewBox="0 0 379 98" fill="none" xmlns="http://www.w3.org/2000/svg">
<path d="M9.08 35L0.2 1.4H6.776L12.824 28.136L19.928 1.4H26.696L33.608 28.136L39.656 1.4H46.28L37.16 35H29.864L23.192 10.088L16.328 35H9.08ZM58.6655 35.576C56.2655 35.576 54.1375 35.064 52.2815 34.04C50.4255 33.016 48.9695 31.576 47.9135 29.72C46.8575 27.864 46.3295 25.72 46.3295 23.288C46.3295 20.824 46.8415 18.632 47.8655 16.712C48.9215 14.792 50.3615 13.304 52.1855 12.248C54.0415 11.16 56.2175 10.616 58.7135 10.616C61.0495 10.616 63.1135 11.128 64.9055 12.152C66.6975 13.176 68.0895 14.584 69.0815 16.376C70.1055 18.136 70.6175 20.104 70.6175 22.28C70.6175 22.632 70.6015 23 70.5695 23.384C70.5695 23.768 70.5535 24.168 70.5215 24.584H52.4255C52.5535 26.44 53.1935 27.896 54.3455 28.952C55.5295 30.008 56.9535 30.536 58.6175 30.536C59.8655 30.536 60.9055 30.264 61.7375 29.72C62.6015 29.144 63.2415 28.408 63.6575 27.512H69.8975C69.4495 29.016 68.6975 30.392 67.6415 31.64C66.6175 32.856 65.3375 33.816 63.8015 34.52C62.2975 35.224 60.5855 35.576 58.6655 35.576ZM58.7135 15.608C57.2095 15.608 55.8815 16.04 54.7295 16.904C53.5775 17.736 52.8415 19.016 52.5215 20.744H64.3775C64.2815 19.176 63.7055 17.928 62.6495 17C61.5935 16.072 60.2815 15.608 58.7135 15.608ZM74.825 35V0.439999H80.969V35H74.825ZM97.9509 35.576C95.5189 35.576 93.3749 35.048 91.5189 33.992C89.6629 32.936 88.1909 31.464 87.1029 29.576C86.0469 27.688 85.5189 25.528 85.5189 23.096C85.5189 20.664 86.0469 18.504 87.1029 16.616C88.1909 14.728 89.6629 13.256 91.5189 12.2C93.3749 11.144 95.5189 10.616 97.9509 10.616C100.991 10.616 103.551 11.416 105.631 13.016C107.711 14.584 109.039 16.76 109.615 19.544H103.135C102.815 18.392 102.175 17.496 101.215 16.856C100.287 16.184 99.1829 15.848 97.9029 15.848C96.2069 15.848 94.7669 16.488 93.5829 17.768C92.3989 19.048 91.8069 20.824 91.8069 23.096C91.8069 25.368 92.3989 27.144 93.5829 28.424C94.7669 29.704 96.2069 30.344 97.9029 30.344C99.1829 30.344 100.287 30.024 101.215 29.384C102.175 28.744 102.815 27.832 103.135 26.648H109.615C109.039 29.336 107.711 31.496 105.631 33.128C103.551 34.76 100.991 35.576 97.9509 35.576ZM125.532 35.576C123.228 35.576 121.148 35.048 119.292 33.992C117.468 32.936 116.012 31.48 114.924 29.624C113.868 27.736 113.34 25.56 113.34 23.096C113.34 20.632 113.884 18.472 114.972 16.616C116.06 14.728 117.516 13.256 119.34 12.2C121.196 11.144 123.276 10.616 125.58 10.616C127.852 10.616 129.9 11.144 131.724 12.2C133.58 13.256 135.036 14.728 136.092 16.616C137.18 18.472 137.724 20.632 137.724 23.096C137.724 25.56 137.18 27.736 136.092 29.624C135.036 31.48 133.58 32.936 131.724 33.992C129.868 35.048 127.804 35.576 125.532 35.576ZM125.532 30.248C127.132 30.248 128.524 29.656 129.708 28.472C130.892 27.256 131.484 25.464 131.484 23.096C131.484 20.728 130.892 18.952 129.708 17.768C128.524 16.552 127.148 15.944 125.58 15.944C123.948 15.944 122.54 16.552 121.356 17.768C120.204 18.952 119.628 20.728 119.628 23.096C119.628 25.464 120.204 27.256 121.356 28.472C122.54 29.656 123.932 30.248 125.532 30.248ZM142.257 35V11.192H147.681L148.209 14.408C148.977 13.256 149.985 12.344 151.233 11.672C152.513 10.968 153.985 10.616 155.649 10.616C159.329 10.616 161.937 12.04 163.473 14.888C164.337 13.576 165.489 12.536 166.929 11.768C168.401 11 170.001 10.616 171.729 10.616C174.833 10.616 177.217 11.544 178.882 13.4C180.545 15.256 181.377 17.976 181.377 21.56V35H175.233V22.136C175.233 20.088 174.833 18.52 174.033 17.432C173.265 16.344 172.065 15.8 170.433 15.8C168.769 15.8 167.425 16.408 166.401 17.624C165.409 18.84 164.913 20.536 164.913 22.712V35H158.769V22.136C158.769 20.088 158.369 18.52 157.569 17.432C156.769 16.344 155.537 15.8 153.873 15.8C152.241 15.8 150.913 16.408 149.889 17.624C148.897 18.84 148.401 20.536 148.401 22.712V35H142.257ZM197.819 35.576C195.419 35.576 193.291 35.064 191.435 34.04C189.579 33.016 188.123 31.576 187.067 29.72C186.011 27.864 185.483 25.72 185.483 23.288C185.483 20.824 185.995 18.632 187.019 16.712C188.075 14.792 189.515 13.304 191.339 12.248C193.195 11.16 195.371 10.616 197.867 10.616C200.203 10.616 202.267 11.128 204.059 12.152C205.851 13.176 207.243 14.584 208.235 16.376C209.259 18.136 209.771 20.104 209.771 22.28C209.771 22.632 209.755 23 209.723 23.384C209.723 23.768 209.707 24.168 209.675 24.584H191.579C191.707 26.44 192.347 27.896 193.499 28.952C194.683 30.008 196.107 30.536 197.771 30.536C199.019 30.536 200.059 30.264 200.891 29.72C201.755 29.144 202.395 28.408 202.811 27.512H209.051C208.603 29.016 207.851 30.392 206.795 31.64C205.771 32.856 204.491 33.816 202.955 34.52C201.451 35.224 199.739 35.576 197.819 35.576ZM197.867 15.608C196.363 15.608 195.035 16.04 193.883 16.904C192.731 17.736 191.995 19.016 191.675 20.744H203.531C203.435 19.176 202.859 17.928 201.803 17C200.747 16.072 199.435 15.608 197.867 15.608ZM235.064 35C232.568 35 230.568 34.392 229.064 33.176C227.56 31.96 226.808 29.8 226.808 26.696V16.328H222.728V11.192H226.808L227.528 4.808H232.952V11.192H239.384V16.328H232.952V26.744C232.952 27.896 233.192 28.696 233.672 29.144C234.184 29.56 235.048 29.768 236.264 29.768H239.24V35H235.064ZM254.513 35.576C252.209 35.576 250.129 35.048 248.273 33.992C246.449 32.936 244.993 31.48 243.905 29.624C242.849 27.736 242.321 25.56 242.321 23.096C242.321 20.632 242.865 18.472 243.953 16.616C245.041 14.728 246.497 13.256 248.321 12.2C250.177 11.144 252.257 10.616 254.561 10.616C256.833 10.616 258.881 11.144 260.705 12.2C262.561 13.256 264.017 14.728 265.073 16.616C266.161 18.472 266.705 20.632 266.705 23.096C266.705 25.56 266.161 27.736 265.073 29.624C264.017 31.48 262.561 32.936 260.705 33.992C258.849 35.048 256.785 35.576 254.513 35.576ZM254.513 30.248C256.113 30.248 257.505 29.656 258.689 28.472C259.873 27.256 260.465 25.464 260.465 23.096C260.465 20.728 259.873 18.952 258.689 17.768C257.505 16.552 256.129 15.944 254.561 15.944C252.929 15.944 251.521 16.552 250.337 17.768C249.185 18.952 248.609 20.728 248.609 23.096C248.609 25.464 249.185 27.256 250.337 28.472C251.521 29.656 252.913 30.248 254.513 30.248ZM284.692 45.56L290.212 33.416H288.772L279.508 11.192H286.18L292.852 27.944L299.812 11.192H306.34L291.22 45.56H284.692ZM318.758 35.576C316.454 35.576 314.374 35.048 312.518 33.992C310.694 32.936 309.238 31.48 308.15 29.624C307.094 27.736 306.566 25.56 306.566 23.096C306.566 20.632 307.11 18.472 308.198 16.616C309.286 14.728 310.742 13.256 312.566 12.2C314.422 11.144 316.502 10.616 318.806 10.616C321.078 10.616 323.126 11.144 324.95 12.2C326.806 13.256 328.262 14.728 329.318 16.616C330.406 18.472 330.95 20.632 330.95 23.096C330.95 25.56 330.406 27.736 329.318 29.624C328.262 31.48 326.806 32.936 324.95 33.992C323.094 35.048 321.03 35.576 318.758 35.576ZM318.758 30.248C320.358 30.248 321.75 29.656 322.934 28.472C324.118 27.256 324.71 25.464 324.71 23.096C324.71 20.728 324.118 18.952 322.934 17.768C321.75 16.552 320.374 15.944 318.806 15.944C317.174 15.944 315.766 16.552 314.582 17.768C313.43 18.952 312.854 20.728 312.854 23.096C312.854 25.464 313.43 27.256 314.582 28.472C315.766 29.656 317.158 30.248 318.758 30.248ZM344.412 35.576C341.436 35.576 339.132 34.648 337.5 32.792C335.9 30.936 335.1 28.216 335.1 24.632V11.192H341.196V24.056C341.196 26.104 341.612 27.672 342.444 28.76C343.276 29.848 344.588 30.392 346.38 30.392C348.076 30.392 349.468 29.784 350.556 28.568C351.676 27.352 352.236 25.656 352.236 23.48V11.192H358.38V35H352.956L352.476 30.968C351.74 32.376 350.668 33.496 349.26 34.328C347.884 35.16 346.268 35.576 344.412 35.576ZM363.727 35V11.192H369.199L369.775 15.656C370.639 14.12 371.807 12.904 373.279 12.008C374.783 11.08 376.543 10.616 378.559 10.616V17.096H376.831C375.487 17.096 374.287 17.304 373.231 17.72C372.175 18.136 371.343 18.856 370.735 19.88C370.159 20.904 369.871 22.328 369.871 24.152V35H363.727ZM2.264 97V63.4H13.736C17.672 63.4 20.904 64.104 23.432 65.512C25.992 66.888 27.88 68.84 29.096 71.368C30.344 73.864 30.968 76.808 30.968 80.2C30.968 83.592 30.344 86.552 29.096 89.08C27.88 91.576 25.992 93.528 23.432 94.936C20.904 96.312 17.672 97 13.736 97H2.264ZM8.408 91.72H13.448C16.264 91.72 18.488 91.272 20.12 90.376C21.752 89.448 22.92 88.136 23.624 86.44C24.328 84.712 24.68 82.632 24.68 80.2C24.68 77.8 24.328 75.736 23.624 74.008C22.92 72.28 21.752 70.952 20.12 70.024C18.488 69.096 16.264 68.632 13.448 68.632H8.408V91.72ZM43.493 97.576C41.445 97.576 39.765 97.256 38.453 96.616C37.141 95.944 36.165 95.064 35.525 93.976C34.885 92.888 34.565 91.688 34.565 90.376C34.565 88.168 35.429 86.376 37.157 85C38.885 83.624 41.477 82.936 44.933 82.936H50.981V82.36C50.981 80.728 50.517 79.528 49.589 78.76C48.661 77.992 47.509 77.608 46.133 77.608C44.885 77.608 43.797 77.912 42.869 78.52C41.941 79.096 41.365 79.96 41.141 81.112H35.141C35.301 79.384 35.877 77.88 36.869 76.6C37.893 75.32 39.205 74.344 40.805 73.672C42.405 72.968 44.197 72.616 46.181 72.616C49.573 72.616 52.245 73.464 54.197 75.16C56.149 76.856 57.125 79.256 57.125 82.36V97H51.893L51.317 93.16C50.613 94.44 49.621 95.496 48.341 96.328C47.093 97.16 45.477 97.576 43.493 97.576ZM44.885 92.776C46.645 92.776 48.005 92.2 48.965 91.048C49.957 89.896 50.581 88.472 50.837 86.776H45.605C43.973 86.776 42.805 87.08 42.101 87.688C41.397 88.264 41.045 88.984 41.045 89.848C41.045 90.776 41.397 91.496 42.101 92.008C42.805 92.52 43.733 92.776 44.885 92.776ZM71.8681 97.576C69.7561 97.576 67.9001 97.24 66.3001 96.568C64.7001 95.864 63.4201 94.904 62.4601 93.688C61.5001 92.472 60.9241 91.064 60.7321 89.464H66.9241C67.1161 90.392 67.6281 91.192 68.4601 91.864C69.3241 92.504 70.4281 92.824 71.7721 92.824C73.1161 92.824 74.0921 92.552 74.7001 92.008C75.3401 91.464 75.6601 90.84 75.6601 90.136C75.6601 89.112 75.2121 88.424 74.3161 88.072C73.4201 87.688 72.1721 87.32 70.5721 86.968C69.5481 86.744 68.5081 86.472 67.4521 86.152C66.3961 85.832 65.4201 85.432 64.5241 84.952C63.6601 84.44 62.9561 83.8 62.4121 83.032C61.8681 82.232 61.5961 81.256 61.5961 80.104C61.5961 77.992 62.4281 76.216 64.0921 74.776C65.7881 73.336 68.1561 72.616 71.1961 72.616C74.0121 72.616 76.2521 73.272 77.9161 74.584C79.6121 75.896 80.6201 77.704 80.9401 80.008H75.1321C74.7801 78.248 73.4521 77.368 71.1481 77.368C69.9961 77.368 69.1001 77.592 68.4601 78.04C67.8521 78.488 67.5481 79.048 67.5481 79.72C67.5481 80.424 68.0121 80.984 68.9401 81.4C69.8681 81.816 71.1001 82.2 72.6361 82.552C74.3001 82.936 75.8201 83.368 77.1961 83.848C78.6041 84.296 79.7241 84.984 80.5561 85.912C81.3881 86.808 81.8041 88.104 81.8041 89.8C81.8361 91.272 81.4521 92.6 80.6521 93.784C79.8521 94.968 78.7001 95.896 77.1961 96.568C75.6921 97.24 73.9161 97.576 71.8681 97.576ZM86.2869 97V62.44H92.4309V76.84C93.2309 75.528 94.3029 74.504 95.6469 73.768C97.0229 73 98.5909 72.616 100.351 72.616C103.295 72.616 105.567 73.544 107.167 75.4C108.799 77.256 109.615 79.976 109.615 83.56V97H103.519V84.136C103.519 82.088 103.103 80.52 102.271 79.432C101.471 78.344 100.191 77.8 98.4309 77.8C96.7029 77.8 95.2629 78.408 94.1109 79.624C92.9909 80.84 92.4309 82.536 92.4309 84.712V97H86.2869ZM128.642 97.576C126.85 97.576 125.282 97.24 123.938 96.568C122.594 95.896 121.506 94.952 120.674 93.736L120.002 97H114.53V62.44H120.674V76.6C121.442 75.544 122.45 74.616 123.698 73.816C124.978 73.016 126.626 72.616 128.642 72.616C130.882 72.616 132.882 73.16 134.642 74.248C136.402 75.336 137.794 76.824 138.818 78.712C139.842 80.6 140.354 82.744 140.354 85.144C140.354 87.544 139.842 89.688 138.818 91.576C137.794 93.432 136.402 94.904 134.642 95.992C132.882 97.048 130.882 97.576 128.642 97.576ZM127.346 92.2C129.298 92.2 130.914 91.544 132.194 90.232C133.474 88.92 134.114 87.224 134.114 85.144C134.114 83.064 133.474 81.352 132.194 80.008C130.914 78.664 129.298 77.992 127.346 77.992C125.362 77.992 123.73 78.664 122.45 80.008C121.202 81.32 120.578 83.016 120.578 85.096C120.578 87.176 121.202 88.888 122.45 90.232C123.73 91.544 125.362 92.2 127.346 92.2ZM156.306 97.576C154.002 97.576 151.922 97.048 150.066 95.992C148.242 94.936 146.786 93.48 145.698 91.624C144.642 89.736 144.114 87.56 144.114 85.096C144.114 82.632 144.658 80.472 145.746 78.616C146.834 76.728 148.29 75.256 150.114 74.2C151.97 73.144 154.05 72.616 156.354 72.616C158.626 72.616 160.674 73.144 162.498 74.2C164.354 75.256 165.81 76.728 166.866 78.616C167.954 80.472 168.498 82.632 168.498 85.096C168.498 87.56 167.954 89.736 166.866 91.624C165.81 93.48 164.354 94.936 162.498 95.992C160.642 97.048 158.578 97.576 156.306 97.576ZM156.306 92.248C157.906 92.248 159.298 91.656 160.482 90.472C161.666 89.256 162.258 87.464 162.258 85.096C162.258 82.728 161.666 80.952 160.482 79.768C159.298 78.552 157.922 77.944 156.354 77.944C154.722 77.944 153.314 78.552 152.13 79.768C150.978 80.952 150.402 82.728 150.402 85.096C150.402 87.464 150.978 89.256 152.13 90.472C153.314 91.656 154.706 92.248 156.306 92.248ZM181.24 97.576C179.192 97.576 177.512 97.256 176.2 96.616C174.888 95.944 173.912 95.064 173.272 93.976C172.632 92.888 172.312 91.688 172.312 90.376C172.312 88.168 173.176 86.376 174.904 85C176.632 83.624 179.224 82.936 182.68 82.936H188.728V82.36C188.728 80.728 188.264 79.528 187.336 78.76C186.408 77.992 185.256 77.608 183.88 77.608C182.632 77.608 181.544 77.912 180.616 78.52C179.688 79.096 179.112 79.96 178.888 81.112H172.888C173.048 79.384 173.624 77.88 174.616 76.6C175.64 75.32 176.952 74.344 178.552 73.672C180.152 72.968 181.944 72.616 183.928 72.616C187.32 72.616 189.992 73.464 191.944 75.16C193.896 76.856 194.872 79.256 194.872 82.36V97H189.64L189.064 93.16C188.36 94.44 187.368 95.496 186.088 96.328C184.84 97.16 183.224 97.576 181.24 97.576ZM182.632 92.776C184.392 92.776 185.752 92.2 186.712 91.048C187.704 89.896 188.328 88.472 188.584 86.776H183.352C181.72 86.776 180.552 87.08 179.848 87.688C179.144 88.264 178.792 88.984 178.792 89.848C178.792 90.776 179.144 91.496 179.848 92.008C180.552 92.52 181.48 92.776 182.632 92.776ZM199.775 97V73.192H205.247L205.823 77.656C206.687 76.12 207.855 74.904 209.327 74.008C210.831 73.08 212.591 72.616 214.607 72.616V79.096H212.879C211.535 79.096 210.335 79.304 209.279 79.72C208.223 80.136 207.391 80.856 206.783 81.88C206.207 82.904 205.919 84.328 205.919 86.152V97H199.775ZM228.368 97.576C226.128 97.576 224.128 97.032 222.368 95.944C220.608 94.856 219.216 93.368 218.192 91.48C217.168 89.592 216.656 87.448 216.656 85.048C216.656 82.648 217.168 80.52 218.192 78.664C219.216 76.776 220.608 75.304 222.368 74.248C224.128 73.16 226.128 72.616 228.368 72.616C230.16 72.616 231.728 72.952 233.072 73.624C234.416 74.296 235.504 75.24 236.336 76.456V62.44H242.48V97H237.008L236.336 93.592C235.568 94.648 234.544 95.576 233.264 96.376C232.016 97.176 230.384 97.576 228.368 97.576ZM229.664 92.2C231.648 92.2 233.264 91.544 234.512 90.232C235.792 88.888 236.432 87.176 236.432 85.096C236.432 83.016 235.792 81.32 234.512 80.008C233.264 78.664 231.648 77.992 229.664 77.992C227.712 77.992 226.096 78.648 224.816 79.96C223.536 81.272 222.896 82.968 222.896 85.048C222.896 87.128 223.536 88.84 224.816 90.184C226.096 91.528 227.712 92.2 229.664 92.2Z" fill="#1E272E"/>
</svg>
