<svg width="473" height="112" viewBox="0 0 473 112" fill="none" xmlns="http://www.w3.org/2000/svg">
<path d="M6.972 21V13.776L0.476 1.4H3.836L8.456 10.864L13.048 1.4H16.38L9.94 13.776V21H6.972ZM22.1948 21.336C20.8695 21.336 19.6748 21.0373 18.6108 20.44C17.5655 19.824 16.7348 18.9747 16.1188 17.892C15.5028 16.7907 15.1948 15.512 15.1948 14.056C15.1948 12.6 15.5028 11.3307 16.1188 10.248C16.7535 9.14667 17.6028 8.29733 18.6668 7.7C19.7308 7.084 20.9161 6.776 22.2228 6.776C23.5481 6.776 24.7335 7.084 25.7788 7.7C26.8428 8.29733 27.6828 9.14667 28.2988 10.248C28.9335 11.3307 29.2508 12.6 29.2508 14.056C29.2508 15.512 28.9335 16.7907 28.2988 17.892C27.6828 18.9747 26.8428 19.824 25.7788 20.44C24.7148 21.0373 23.5201 21.336 22.1948 21.336ZM22.1948 18.788C22.9041 18.788 23.5575 18.6107 24.1548 18.256C24.7708 17.9013 25.2655 17.3787 25.6388 16.688C26.0121 15.9787 26.1988 15.1013 26.1988 14.056C26.1988 13.0107 26.0121 12.1427 25.6388 11.452C25.2841 10.7427 24.7988 10.2107 24.1828 9.856C23.5855 9.50133 22.9321 9.324 22.2228 9.324C21.5135 9.324 20.8508 9.50133 20.2348 9.856C19.6375 10.2107 19.1521 10.7427 18.7788 11.452C18.4055 12.1427 18.2188 13.0107 18.2188 14.056C18.2188 15.1013 18.4055 15.9787 18.7788 16.688C19.1521 17.3787 19.6375 17.9013 20.2348 18.256C20.8321 18.6107 21.4855 18.788 22.1948 18.788ZM37.0245 21.336C35.3445 21.336 34.0192 20.8133 33.0485 19.768C32.0965 18.7227 31.6205 17.164 31.6205 15.092V7.112H34.5885V14.784C34.5885 17.472 35.6899 18.816 37.8925 18.816C38.9939 18.816 39.8992 18.424 40.6085 17.64C41.3179 16.856 41.6725 15.736 41.6725 14.28V7.112H44.6405V21H42.0085L41.7845 18.564C41.3552 19.4227 40.7205 20.104 39.8805 20.608C39.0592 21.0933 38.1072 21.336 37.0245 21.336ZM47.8562 21V7.112H50.5162L50.7682 9.744C51.2535 8.82933 51.9255 8.11067 52.7842 7.588C53.6615 7.04667 54.7162 6.776 55.9482 6.776V9.884H55.1362C54.3148 9.884 53.5775 10.024 52.9242 10.304C52.2895 10.5653 51.7762 11.0227 51.3842 11.676C51.0108 12.3107 50.8242 13.1973 50.8242 14.336V21H47.8562ZM69.5516 21.336C67.8716 21.336 66.5462 20.8133 65.5756 19.768C64.6236 18.7227 64.1476 17.164 64.1476 15.092V7.112H67.1156V14.784C67.1156 17.472 68.2169 18.816 70.4196 18.816C71.5209 18.816 72.4262 18.424 73.1356 17.64C73.8449 16.856 74.1996 15.736 74.1996 14.28V7.112H77.1676V21H74.5356L74.3116 18.564C73.8822 19.4227 73.2476 20.104 72.4076 20.608C71.5862 21.0933 70.6342 21.336 69.5516 21.336ZM80.3832 27.16V7.112H83.0432L83.3512 9.268C83.7992 8.61467 84.4152 8.036 85.1992 7.532C85.9832 7.028 86.9912 6.776 88.2232 6.776C89.5672 6.776 90.7525 7.09333 91.7792 7.728C92.8059 8.36267 93.6085 9.23067 94.1872 10.332C94.7845 11.4333 95.0832 12.684 95.0832 14.084C95.0832 15.484 94.7845 16.7347 94.1872 17.836C93.6085 18.9187 92.8059 19.7773 91.7792 20.412C90.7525 21.028 89.5579 21.336 88.1952 21.336C87.1125 21.336 86.1512 21.1213 85.3112 20.692C84.4899 20.2627 83.8365 19.656 83.3512 18.872V27.16H80.3832ZM87.6912 18.76C88.9605 18.76 90.0059 18.3307 90.8272 17.472C91.6485 16.5947 92.0592 15.456 92.0592 14.056C92.0592 13.1413 91.8725 12.3293 91.4992 11.62C91.1259 10.9107 90.6125 10.36 89.9592 9.968C89.3059 9.55733 88.5499 9.352 87.6912 9.352C86.4219 9.352 85.3765 9.79067 84.5552 10.668C83.7525 11.5453 83.3512 12.6747 83.3512 14.056C83.3512 15.456 83.7525 16.5947 84.5552 17.472C85.3765 18.3307 86.4219 18.76 87.6912 18.76ZM97.7333 21V0.839999H100.701V21H97.7333ZM110.396 21.336C109.071 21.336 107.876 21.0373 106.812 20.44C105.767 19.824 104.936 18.9747 104.32 17.892C103.704 16.7907 103.396 15.512 103.396 14.056C103.396 12.6 103.704 11.3307 104.32 10.248C104.955 9.14667 105.804 8.29733 106.868 7.7C107.932 7.084 109.117 6.776 110.424 6.776C111.749 6.776 112.935 7.084 113.98 7.7C115.044 8.29733 115.884 9.14667 116.5 10.248C117.135 11.3307 117.452 12.6 117.452 14.056C117.452 15.512 117.135 16.7907 116.5 17.892C115.884 18.9747 115.044 19.824 113.98 20.44C112.916 21.0373 111.721 21.336 110.396 21.336ZM110.396 18.788C111.105 18.788 111.759 18.6107 112.356 18.256C112.972 17.9013 113.467 17.3787 113.84 16.688C114.213 15.9787 114.4 15.1013 114.4 14.056C114.4 13.0107 114.213 12.1427 113.84 11.452C113.485 10.7427 113 10.2107 112.384 9.856C111.787 9.50133 111.133 9.324 110.424 9.324C109.715 9.324 109.052 9.50133 108.436 9.856C107.839 10.2107 107.353 10.7427 106.98 11.452C106.607 12.1427 106.42 13.0107 106.42 14.056C106.42 15.1013 106.607 15.9787 106.98 16.688C107.353 17.3787 107.839 17.9013 108.436 18.256C109.033 18.6107 109.687 18.788 110.396 18.788ZM124.806 21.336C123.63 21.336 122.659 21.14 121.894 20.748C121.128 20.356 120.559 19.8427 120.186 19.208C119.812 18.5547 119.626 17.8453 119.626 17.08C119.626 15.736 120.148 14.672 121.194 13.888C122.239 13.104 123.732 12.712 125.674 12.712H129.314V12.46C129.314 11.3773 129.015 10.5653 128.418 10.024C127.839 9.48267 127.083 9.212 126.15 9.212C125.328 9.212 124.61 9.41733 123.994 9.828C123.396 10.22 123.032 10.808 122.902 11.592H119.934C120.027 10.584 120.363 9.72533 120.942 9.016C121.539 8.288 122.286 7.73733 123.182 7.364C124.096 6.972 125.095 6.776 126.178 6.776C128.119 6.776 129.622 7.28933 130.686 8.316C131.75 9.324 132.282 10.7053 132.282 12.46V21H129.706L129.454 18.62C129.062 19.3853 128.492 20.0293 127.746 20.552C126.999 21.0747 126.019 21.336 124.806 21.336ZM125.394 18.928C126.196 18.928 126.868 18.7413 127.41 18.368C127.97 17.976 128.399 17.4627 128.698 16.828C129.015 16.1933 129.211 15.4933 129.286 14.728H125.982C124.806 14.728 123.966 14.9333 123.462 15.344C122.976 15.7547 122.734 16.268 122.734 16.884C122.734 17.5187 122.967 18.0227 123.434 18.396C123.919 18.7507 124.572 18.928 125.394 18.928ZM141.51 21.336C140.166 21.336 138.981 21.0187 137.954 20.384C136.928 19.7493 136.125 18.8813 135.546 17.78C134.968 16.6787 134.678 15.428 134.678 14.028C134.678 12.628 134.968 11.3867 135.546 10.304C136.125 9.20267 136.928 8.344 137.954 7.728C139 7.09333 140.194 6.776 141.538 6.776C142.64 6.776 143.601 6.99067 144.422 7.42C145.262 7.84933 145.916 8.456 146.382 9.24V0.839999H149.35V21H146.69L146.382 18.844C145.934 19.4973 145.318 20.076 144.534 20.58C143.75 21.084 142.742 21.336 141.51 21.336ZM142.042 18.76C143.312 18.76 144.348 18.3213 145.15 17.444C145.972 16.5667 146.382 15.4373 146.382 14.056C146.382 12.656 145.972 11.5267 145.15 10.668C144.348 9.79067 143.312 9.352 142.042 9.352C140.773 9.352 139.728 9.79067 138.906 10.668C138.085 11.5267 137.674 12.656 137.674 14.056C137.674 14.9707 137.861 15.7827 138.234 16.492C138.608 17.2013 139.121 17.7613 139.774 18.172C140.446 18.564 141.202 18.76 142.042 18.76ZM159.028 21.336C157.666 21.336 156.452 21.0373 155.388 20.44C154.343 19.824 153.522 18.9747 152.924 17.892C152.327 16.8093 152.028 15.5493 152.028 14.112C152.028 12.656 152.318 11.3773 152.896 10.276C153.494 9.17467 154.315 8.316 155.36 7.7C156.424 7.084 157.656 6.776 159.056 6.776C160.419 6.776 161.604 7.084 162.612 7.7C163.62 8.29733 164.404 9.1 164.964 10.108C165.524 11.116 165.804 12.2267 165.804 13.44C165.804 13.6267 165.795 13.832 165.776 14.056C165.776 14.2613 165.767 14.4947 165.748 14.756H154.94C155.034 16.1 155.472 17.1267 156.256 17.836C157.059 18.5267 157.983 18.872 159.028 18.872C159.868 18.872 160.568 18.6853 161.128 18.312C161.707 17.92 162.136 17.3973 162.416 16.744H165.384C165.011 18.0507 164.264 19.1427 163.144 20.02C162.043 20.8973 160.671 21.336 159.028 21.336ZM159.028 9.212C158.039 9.212 157.162 9.51067 156.396 10.108C155.631 10.6867 155.164 11.564 154.996 12.74H162.836C162.78 11.6573 162.398 10.7987 161.688 10.164C160.979 9.52933 160.092 9.212 159.028 9.212ZM174.652 21.336C173.308 21.336 172.123 21.0187 171.096 20.384C170.069 19.7493 169.267 18.8813 168.688 17.78C168.109 16.6787 167.82 15.428 167.82 14.028C167.82 12.628 168.109 11.3867 168.688 10.304C169.267 9.20267 170.069 8.344 171.096 7.728C172.141 7.09333 173.336 6.776 174.68 6.776C175.781 6.776 176.743 6.99067 177.564 7.42C178.404 7.84933 179.057 8.456 179.524 9.24V0.839999H182.492V21H179.832L179.524 18.844C179.076 19.4973 178.46 20.076 177.676 20.58C176.892 21.084 175.884 21.336 174.652 21.336ZM175.184 18.76C176.453 18.76 177.489 18.3213 178.292 17.444C179.113 16.5667 179.524 15.4373 179.524 14.056C179.524 12.656 179.113 11.5267 178.292 10.668C177.489 9.79067 176.453 9.352 175.184 9.352C173.915 9.352 172.869 9.79067 172.048 10.668C171.227 11.5267 170.816 12.656 170.816 14.056C170.816 14.9707 171.003 15.7827 171.376 16.492C171.749 17.2013 172.263 17.7613 172.916 18.172C173.588 18.564 174.344 18.76 175.184 18.76ZM191.021 21L198.245 1.4H201.493L208.661 21H205.525L203.845 16.212H195.837L194.157 21H191.021ZM196.677 13.86H203.005L199.841 4.928L196.677 13.86ZM210.834 21V1.4H217.694C219.225 1.4 220.494 1.66133 221.502 2.184C222.51 2.688 223.257 3.388 223.742 4.284C224.246 5.16133 224.498 6.16 224.498 7.28C224.498 8.344 224.255 9.324 223.77 10.22C223.303 11.0973 222.566 11.7973 221.558 12.32C220.55 12.8427 219.262 13.104 217.694 13.104H213.802V21H210.834ZM213.802 10.668H217.554C218.954 10.668 219.953 10.3693 220.55 9.772C221.166 9.156 221.474 8.32533 221.474 7.28C221.474 6.19733 221.166 5.35733 220.55 4.76C219.953 4.144 218.954 3.836 217.554 3.836H213.802V10.668ZM226.872 21V1.4H229.84V21H226.872ZM238.689 21.336C236.934 21.336 235.488 20.9067 234.349 20.048C233.21 19.1893 232.557 18.0507 232.389 16.632H235.385C235.534 17.2667 235.889 17.8173 236.449 18.284C237.009 18.732 237.746 18.956 238.661 18.956C239.557 18.956 240.21 18.7693 240.621 18.396C241.032 18.0227 241.237 17.5933 241.237 17.108C241.237 16.3987 240.948 15.9227 240.369 15.68C239.809 15.4187 239.025 15.1853 238.017 14.98C237.233 14.812 236.449 14.588 235.665 14.308C234.9 14.028 234.256 13.636 233.733 13.132C233.229 12.6093 232.977 11.9093 232.977 11.032C232.977 9.81867 233.444 8.81067 234.377 8.008C235.31 7.18667 236.617 6.776 238.297 6.776C239.846 6.776 241.097 7.14933 242.049 7.896C243.02 8.64267 243.589 9.69733 243.757 11.06H240.901C240.808 10.4627 240.528 9.996 240.061 9.66C239.613 9.324 239.006 9.156 238.241 9.156C237.494 9.156 236.916 9.31467 236.505 9.632C236.094 9.93067 235.889 10.3227 235.889 10.808C235.889 11.2933 236.169 11.676 236.729 11.956C237.308 12.236 238.064 12.488 238.997 12.712C239.93 12.9173 240.789 13.16 241.573 13.44C242.376 13.7013 243.02 14.0933 243.505 14.616C243.99 15.1387 244.233 15.904 244.233 16.912C244.252 18.1813 243.757 19.236 242.749 20.076C241.76 20.916 240.406 21.336 238.689 21.336ZM256.18 21L252.092 7.112H255.06L257.748 17.584L260.772 7.112H264.076L267.1 17.584L269.788 7.112H272.756L268.668 21H265.616L262.424 10.08L259.232 21H256.18ZM276.321 4.48C275.761 4.48 275.294 4.312 274.921 3.976C274.566 3.62133 274.389 3.18267 274.389 2.66C274.389 2.13733 274.566 1.708 274.921 1.372C275.294 1.01733 275.761 0.839999 276.321 0.839999C276.881 0.839999 277.338 1.01733 277.693 1.372C278.066 1.708 278.253 2.13733 278.253 2.66C278.253 3.18267 278.066 3.62133 277.693 3.976C277.338 4.312 276.881 4.48 276.321 4.48ZM274.837 21V7.112H277.805V21H274.837ZM281.163 21V0.839999H284.131V21H281.163ZM287.329 21V0.839999H290.297V21H287.329ZM307.803 21.336C306.72 21.336 305.759 21.1213 304.919 20.692C304.097 20.2627 303.444 19.656 302.959 18.872L302.651 21H299.991V0.839999H302.959V9.268C303.407 8.61467 304.023 8.036 304.807 7.532C305.591 7.028 306.599 6.776 307.831 6.776C309.175 6.776 310.36 7.09333 311.387 7.728C312.413 8.36267 313.216 9.23067 313.795 10.332C314.392 11.4333 314.691 12.684 314.691 14.084C314.691 15.484 314.392 16.7347 313.795 17.836C313.216 18.9187 312.413 19.7773 311.387 20.412C310.36 21.028 309.165 21.336 307.803 21.336ZM307.299 18.76C308.568 18.76 309.613 18.3307 310.435 17.472C311.256 16.5947 311.667 15.456 311.667 14.056C311.667 13.1413 311.48 12.3293 311.107 11.62C310.733 10.9107 310.22 10.36 309.567 9.968C308.913 9.55733 308.157 9.352 307.299 9.352C306.029 9.352 304.984 9.79067 304.163 10.668C303.36 11.5453 302.959 12.6747 302.959 14.056C302.959 15.456 303.36 16.5947 304.163 17.472C304.984 18.3307 306.029 18.76 307.299 18.76ZM323.837 21.336C322.474 21.336 321.261 21.0373 320.197 20.44C319.152 19.824 318.33 18.9747 317.733 17.892C317.136 16.8093 316.837 15.5493 316.837 14.112C316.837 12.656 317.126 11.3773 317.705 10.276C318.302 9.17467 319.124 8.316 320.169 7.7C321.233 7.084 322.465 6.776 323.865 6.776C325.228 6.776 326.413 7.084 327.421 7.7C328.429 8.29733 329.213 9.1 329.773 10.108C330.333 11.116 330.613 12.2267 330.613 13.44C330.613 13.6267 330.604 13.832 330.585 14.056C330.585 14.2613 330.576 14.4947 330.557 14.756H319.749C319.842 16.1 320.281 17.1267 321.065 17.836C321.868 18.5267 322.792 18.872 323.837 18.872C324.677 18.872 325.377 18.6853 325.937 18.312C326.516 17.92 326.945 17.3973 327.225 16.744H330.193C329.82 18.0507 329.073 19.1427 327.953 20.02C326.852 20.8973 325.48 21.336 323.837 21.336ZM323.837 9.212C322.848 9.212 321.97 9.51067 321.205 10.108C320.44 10.6867 319.973 11.564 319.805 12.74H327.645C327.589 11.6573 327.206 10.7987 326.497 10.164C325.788 9.52933 324.901 9.212 323.837 9.212ZM8.204 66.336C6.86 66.336 5.67467 66.0187 4.648 65.384C3.62133 64.7493 2.81867 63.8813 2.24 62.78C1.66133 61.6787 1.372 60.428 1.372 59.028C1.372 57.628 1.66133 56.3867 2.24 55.304C2.81867 54.2027 3.62133 53.344 4.648 52.728C5.69333 52.0933 6.888 51.776 8.232 51.776C9.33333 51.776 10.2947 51.9907 11.116 52.42C11.956 52.8493 12.6093 53.456 13.076 54.24V45.84H16.044V66H13.384L13.076 63.844C12.628 64.4973 12.012 65.076 11.228 65.58C10.444 66.084 9.436 66.336 8.204 66.336ZM8.736 63.76C10.0053 63.76 11.0413 63.3213 11.844 62.444C12.6653 61.5667 13.076 60.4373 13.076 59.056C13.076 57.656 12.6653 56.5267 11.844 55.668C11.0413 54.7907 10.0053 54.352 8.736 54.352C7.46667 54.352 6.42133 54.7907 5.6 55.668C4.77867 56.5267 4.368 57.656 4.368 59.056C4.368 59.9707 4.55467 60.7827 4.928 61.492C5.30133 62.2013 5.81467 62.7613 6.468 63.172C7.14 63.564 7.896 63.76 8.736 63.76ZM20.9062 49.48C20.3462 49.48 19.8795 49.312 19.5062 48.976C19.1515 48.6213 18.9742 48.1827 18.9742 47.66C18.9742 47.1373 19.1515 46.708 19.5062 46.372C19.8795 46.0173 20.3462 45.84 20.9062 45.84C21.4662 45.84 21.9235 46.0173 22.2782 46.372C22.6515 46.708 22.8382 47.1373 22.8382 47.66C22.8382 48.1827 22.6515 48.6213 22.2782 48.976C21.9235 49.312 21.4662 49.48 20.9062 49.48ZM19.4222 66V52.112H22.3902V66H19.4222ZM31.2922 66.336C29.5375 66.336 28.0909 65.9067 26.9522 65.048C25.8135 64.1893 25.1602 63.0507 24.9922 61.632H27.9882C28.1375 62.2667 28.4922 62.8173 29.0522 63.284C29.6122 63.732 30.3495 63.956 31.2642 63.956C32.1602 63.956 32.8135 63.7693 33.2242 63.396C33.6349 63.0227 33.8402 62.5933 33.8402 62.108C33.8402 61.3987 33.5509 60.9227 32.9722 60.68C32.4122 60.4187 31.6282 60.1853 30.6202 59.98C29.8362 59.812 29.0522 59.588 28.2682 59.308C27.5029 59.028 26.8589 58.636 26.3362 58.132C25.8322 57.6093 25.5802 56.9093 25.5802 56.032C25.5802 54.8187 26.0469 53.8107 26.9802 53.008C27.9135 52.1867 29.2202 51.776 30.9002 51.776C32.4495 51.776 33.7002 52.1493 34.6522 52.896C35.6229 53.6427 36.1922 54.6973 36.3602 56.06H33.5042C33.4109 55.4627 33.1309 54.996 32.6642 54.66C32.2162 54.324 31.6095 54.156 30.8442 54.156C30.0975 54.156 29.5189 54.3147 29.1082 54.632C28.6975 54.9307 28.4922 55.3227 28.4922 55.808C28.4922 56.2933 28.7722 56.676 29.3322 56.956C29.9109 57.236 30.6669 57.488 31.6002 57.712C32.5335 57.9173 33.3922 58.16 34.1762 58.44C34.9789 58.7013 35.6229 59.0933 36.1082 59.616C36.5935 60.1387 36.8362 60.904 36.8362 61.912C36.8549 63.1813 36.3602 64.236 35.3522 65.076C34.3629 65.916 33.0095 66.336 31.2922 66.336ZM39.5163 72.16V52.112H42.1763L42.4843 54.268C42.9323 53.6147 43.5483 53.036 44.3323 52.532C45.1163 52.028 46.1243 51.776 47.3563 51.776C48.7003 51.776 49.8856 52.0933 50.9123 52.728C51.939 53.3627 52.7416 54.2307 53.3203 55.332C53.9176 56.4333 54.2163 57.684 54.2163 59.084C54.2163 60.484 53.9176 61.7347 53.3203 62.836C52.7416 63.9187 51.939 64.7773 50.9123 65.412C49.8856 66.028 48.691 66.336 47.3283 66.336C46.2456 66.336 45.2843 66.1213 44.4443 65.692C43.623 65.2627 42.9696 64.656 42.4843 63.872V72.16H39.5163ZM46.8243 63.76C48.0936 63.76 49.139 63.3307 49.9603 62.472C50.7816 61.5947 51.1923 60.456 51.1923 59.056C51.1923 58.1413 51.0056 57.3293 50.6323 56.62C50.259 55.9107 49.7456 55.36 49.0923 54.968C48.439 54.5573 47.683 54.352 46.8243 54.352C45.555 54.352 44.5096 54.7907 43.6883 55.668C42.8856 56.5453 42.4843 57.6747 42.4843 59.056C42.4843 60.456 42.8856 61.5947 43.6883 62.472C44.5096 63.3307 45.555 63.76 46.8243 63.76ZM56.8665 66V45.84H59.8345V66H56.8665ZM67.737 66.336C66.561 66.336 65.5904 66.14 64.825 65.748C64.0597 65.356 63.4904 64.8427 63.117 64.208C62.7437 63.5547 62.557 62.8453 62.557 62.08C62.557 60.736 63.0797 59.672 64.125 58.888C65.1704 58.104 66.6637 57.712 68.605 57.712H72.245V57.46C72.245 56.3773 71.9464 55.5653 71.349 55.024C70.7704 54.4827 70.0144 54.212 69.081 54.212C68.2597 54.212 67.541 54.4173 66.925 54.828C66.3277 55.22 65.9637 55.808 65.833 56.592H62.865C62.9584 55.584 63.2944 54.7253 63.873 54.016C64.4704 53.288 65.217 52.7373 66.113 52.364C67.0277 51.972 68.0264 51.776 69.109 51.776C71.0504 51.776 72.553 52.2893 73.617 53.316C74.681 54.324 75.213 55.7053 75.213 57.46V66H72.637L72.385 63.62C71.993 64.3853 71.4237 65.0293 70.677 65.552C69.9304 66.0747 68.9504 66.336 67.737 66.336ZM68.325 63.928C69.1277 63.928 69.7997 63.7413 70.341 63.368C70.901 62.976 71.3304 62.4627 71.629 61.828C71.9464 61.1933 72.1424 60.4933 72.217 59.728H68.913C67.737 59.728 66.897 59.9333 66.393 60.344C65.9077 60.7547 65.665 61.268 65.665 61.884C65.665 62.5187 65.8984 63.0227 66.365 63.396C66.8504 63.7507 67.5037 63.928 68.325 63.928ZM79.3002 72.16L82.6322 64.852H81.8202L76.3322 52.112H79.5522L83.8082 62.388L88.2602 52.112H91.3962L82.4362 72.16H79.3002ZM98.5145 66.336C97.1518 66.336 95.9385 66.0373 94.8745 65.44C93.8292 64.824 93.0078 63.9747 92.4105 62.892C91.8132 61.8093 91.5145 60.5493 91.5145 59.112C91.5145 57.656 91.8038 56.3773 92.3825 55.276C92.9798 54.1747 93.8012 53.316 94.8465 52.7C95.9105 52.084 97.1425 51.776 98.5425 51.776C99.9052 51.776 101.091 52.084 102.099 52.7C103.107 53.2973 103.891 54.1 104.451 55.108C105.011 56.116 105.291 57.2267 105.291 58.44C105.291 58.6267 105.281 58.832 105.263 59.056C105.263 59.2613 105.253 59.4947 105.235 59.756H94.4265C94.5198 61.1 94.9585 62.1267 95.7425 62.836C96.5452 63.5267 97.4692 63.872 98.5145 63.872C99.3545 63.872 100.055 63.6853 100.615 63.312C101.193 62.92 101.623 62.3973 101.903 61.744H104.871C104.497 63.0507 103.751 64.1427 102.631 65.02C101.529 65.8973 100.157 66.336 98.5145 66.336ZM98.5145 54.212C97.5252 54.212 96.6478 54.5107 95.8825 55.108C95.1172 55.6867 94.6505 56.564 94.4825 57.74H102.323C102.267 56.6573 101.884 55.7987 101.175 55.164C100.465 54.5293 99.5785 54.212 98.5145 54.212ZM114.138 66.336C112.794 66.336 111.609 66.0187 110.582 65.384C109.555 64.7493 108.753 63.8813 108.174 62.78C107.595 61.6787 107.306 60.428 107.306 59.028C107.306 57.628 107.595 56.3867 108.174 55.304C108.753 54.2027 109.555 53.344 110.582 52.728C111.627 52.0933 112.822 51.776 114.166 51.776C115.267 51.776 116.229 51.9907 117.05 52.42C117.89 52.8493 118.543 53.456 119.01 54.24V45.84H121.978V66H119.318L119.01 63.844C118.562 64.4973 117.946 65.076 117.162 65.58C116.378 66.084 115.37 66.336 114.138 66.336ZM114.67 63.76C115.939 63.76 116.975 63.3213 117.778 62.444C118.599 61.5667 119.01 60.4373 119.01 59.056C119.01 57.656 118.599 56.5267 117.778 55.668C116.975 54.7907 115.939 54.352 114.67 54.352C113.401 54.352 112.355 54.7907 111.534 55.668C110.713 56.5267 110.302 57.656 110.302 59.056C110.302 59.9707 110.489 60.7827 110.862 61.492C111.235 62.2013 111.749 62.7613 112.402 63.172C113.074 63.564 113.83 63.76 114.67 63.76ZM131.655 66V45.84H134.623V54.352C135.09 53.5493 135.734 52.924 136.555 52.476C137.395 52.0093 138.319 51.776 139.327 51.776C140.988 51.776 142.295 52.2987 143.247 53.344C144.199 54.3893 144.675 55.948 144.675 58.02V66H141.735V58.328C141.735 55.64 140.662 54.296 138.515 54.296C137.395 54.296 136.462 54.688 135.715 55.472C134.987 56.256 134.623 57.376 134.623 58.832V66H131.655ZM154.107 66.336C152.744 66.336 151.531 66.0373 150.467 65.44C149.421 64.824 148.6 63.9747 148.003 62.892C147.405 61.8093 147.107 60.5493 147.107 59.112C147.107 57.656 147.396 56.3773 147.975 55.276C148.572 54.1747 149.393 53.316 150.439 52.7C151.503 52.084 152.735 51.776 154.135 51.776C155.497 51.776 156.683 52.084 157.691 52.7C158.699 53.2973 159.483 54.1 160.043 55.108C160.603 56.116 160.883 57.2267 160.883 58.44C160.883 58.6267 160.873 58.832 160.855 59.056C160.855 59.2613 160.845 59.4947 160.827 59.756H150.019C150.112 61.1 150.551 62.1267 151.335 62.836C152.137 63.5267 153.061 63.872 154.107 63.872C154.947 63.872 155.647 63.6853 156.207 63.312C156.785 62.92 157.215 62.3973 157.495 61.744H160.463C160.089 63.0507 159.343 64.1427 158.223 65.02C157.121 65.8973 155.749 66.336 154.107 66.336ZM154.107 54.212C153.117 54.212 152.24 54.5107 151.475 55.108C150.709 55.6867 150.243 56.564 150.075 57.74H157.915C157.859 56.6573 157.476 55.7987 156.767 55.164C156.057 54.5293 155.171 54.212 154.107 54.212ZM163.402 66V52.112H166.062L166.314 54.744C166.799 53.8293 167.471 53.1107 168.33 52.588C169.207 52.0467 170.262 51.776 171.494 51.776V54.884H170.682C169.861 54.884 169.123 55.024 168.47 55.304C167.835 55.5653 167.322 56.0227 166.93 56.676C166.557 57.3107 166.37 58.1973 166.37 59.336V66H163.402ZM179.592 66.336C178.229 66.336 177.016 66.0373 175.952 65.44C174.907 64.824 174.085 63.9747 173.488 62.892C172.891 61.8093 172.592 60.5493 172.592 59.112C172.592 57.656 172.881 56.3773 173.46 55.276C174.057 54.1747 174.879 53.316 175.924 52.7C176.988 52.084 178.22 51.776 179.62 51.776C180.983 51.776 182.168 52.084 183.176 52.7C184.184 53.2973 184.968 54.1 185.528 55.108C186.088 56.116 186.368 57.2267 186.368 58.44C186.368 58.6267 186.359 58.832 186.34 59.056C186.34 59.2613 186.331 59.4947 186.312 59.756H175.504C175.597 61.1 176.036 62.1267 176.82 62.836C177.623 63.5267 178.547 63.872 179.592 63.872C180.432 63.872 181.132 63.6853 181.692 63.312C182.271 62.92 182.7 62.3973 182.98 61.744H185.948C185.575 63.0507 184.828 64.1427 183.708 65.02C182.607 65.8973 181.235 66.336 179.592 66.336ZM179.592 54.212C178.603 54.212 177.725 54.5107 176.96 55.108C176.195 55.6867 175.728 56.564 175.56 57.74H183.4C183.344 56.6573 182.961 55.7987 182.252 55.164C181.543 54.5293 180.656 54.212 179.592 54.212ZM201.878 66.336C200.553 66.336 199.358 66.0373 198.294 65.44C197.249 64.824 196.418 63.9747 195.802 62.892C195.186 61.7907 194.878 60.512 194.878 59.056C194.878 57.6 195.186 56.3307 195.802 55.248C196.437 54.1467 197.286 53.2973 198.35 52.7C199.414 52.084 200.6 51.776 201.906 51.776C203.232 51.776 204.417 52.084 205.462 52.7C206.526 53.2973 207.366 54.1467 207.982 55.248C208.617 56.3307 208.934 57.6 208.934 59.056C208.934 60.512 208.617 61.7907 207.982 62.892C207.366 63.9747 206.526 64.824 205.462 65.44C204.398 66.0373 203.204 66.336 201.878 66.336ZM201.878 63.788C202.588 63.788 203.241 63.6107 203.838 63.256C204.454 62.9013 204.949 62.3787 205.322 61.688C205.696 60.9787 205.882 60.1013 205.882 59.056C205.882 58.0107 205.696 57.1427 205.322 56.452C204.968 55.7427 204.482 55.2107 203.866 54.856C203.269 54.5013 202.616 54.324 201.906 54.324C201.197 54.324 200.534 54.5013 199.918 54.856C199.321 55.2107 198.836 55.7427 198.462 56.452C198.089 57.1427 197.902 58.0107 197.902 59.056C197.902 60.1013 198.089 60.9787 198.462 61.688C198.836 62.3787 199.321 62.9013 199.918 63.256C200.516 63.6107 201.169 63.788 201.878 63.788ZM211.584 66V52.112H214.216L214.44 54.548C214.869 53.6893 215.495 53.0173 216.316 52.532C217.156 52.028 218.117 51.776 219.2 51.776C220.88 51.776 222.196 52.2987 223.148 53.344C224.119 54.3893 224.604 55.948 224.604 58.02V66H221.664V58.328C221.664 55.64 220.563 54.296 218.36 54.296C217.259 54.296 216.344 54.688 215.616 55.472C214.907 56.256 214.552 57.376 214.552 58.832V66H211.584ZM234.12 66.336C232.757 66.336 231.534 66.028 230.452 65.412C229.388 64.796 228.548 63.9467 227.932 62.864C227.334 61.7627 227.036 60.4933 227.036 59.056C227.036 57.6187 227.334 56.3587 227.932 55.276C228.548 54.1747 229.388 53.316 230.452 52.7C231.534 52.084 232.757 51.776 234.12 51.776C235.837 51.776 237.274 52.224 238.432 53.12C239.608 54.016 240.364 55.2293 240.7 56.76H237.592C237.405 55.9947 236.994 55.3973 236.36 54.968C235.725 54.5387 234.978 54.324 234.12 54.324C233.392 54.324 232.72 54.5107 232.104 54.884C231.488 55.2387 230.993 55.7707 230.62 56.48C230.246 57.1707 230.06 58.0293 230.06 59.056C230.06 60.0827 230.246 60.9507 230.62 61.66C230.993 62.3507 231.488 62.8827 232.104 63.256C232.72 63.6293 233.392 63.816 234.12 63.816C234.978 63.816 235.725 63.6013 236.36 63.172C236.994 62.7427 237.405 62.136 237.592 61.352H240.7C240.382 62.8453 239.636 64.0493 238.46 64.964C237.284 65.8787 235.837 66.336 234.12 66.336ZM249.854 66.336C248.492 66.336 247.278 66.0373 246.214 65.44C245.169 64.824 244.348 63.9747 243.75 62.892C243.153 61.8093 242.854 60.5493 242.854 59.112C242.854 57.656 243.144 56.3773 243.722 55.276C244.32 54.1747 245.141 53.316 246.186 52.7C247.25 52.084 248.482 51.776 249.882 51.776C251.245 51.776 252.43 52.084 253.438 52.7C254.446 53.2973 255.23 54.1 255.79 55.108C256.35 56.116 256.63 57.2267 256.63 58.44C256.63 58.6267 256.621 58.832 256.602 59.056C256.602 59.2613 256.593 59.4947 256.574 59.756H245.766C245.86 61.1 246.298 62.1267 247.082 62.836C247.885 63.5267 248.809 63.872 249.854 63.872C250.694 63.872 251.394 63.6853 251.954 63.312C252.533 62.92 252.962 62.3973 253.242 61.744H256.21C255.837 63.0507 255.09 64.1427 253.97 65.02C252.869 65.8973 251.497 66.336 249.854 66.336ZM249.854 54.212C248.865 54.212 247.988 54.5107 247.222 55.108C246.457 55.6867 245.99 56.564 245.822 57.74H253.662C253.606 56.6573 253.224 55.7987 252.514 55.164C251.805 54.5293 250.918 54.212 249.854 54.212ZM267.269 72.16L270.601 64.852H269.789L264.301 52.112H267.521L271.777 62.388L276.229 52.112H279.365L270.405 72.16H267.269ZM286.483 66.336C285.158 66.336 283.963 66.0373 282.899 65.44C281.854 64.824 281.023 63.9747 280.407 62.892C279.791 61.7907 279.483 60.512 279.483 59.056C279.483 57.6 279.791 56.3307 280.407 55.248C281.042 54.1467 281.891 53.2973 282.955 52.7C284.019 52.084 285.204 51.776 286.511 51.776C287.836 51.776 289.022 52.084 290.067 52.7C291.131 53.2973 291.971 54.1467 292.587 55.248C293.222 56.3307 293.539 57.6 293.539 59.056C293.539 60.512 293.222 61.7907 292.587 62.892C291.971 63.9747 291.131 64.824 290.067 65.44C289.003 66.0373 287.808 66.336 286.483 66.336ZM286.483 63.788C287.192 63.788 287.846 63.6107 288.443 63.256C289.059 62.9013 289.554 62.3787 289.927 61.688C290.3 60.9787 290.487 60.1013 290.487 59.056C290.487 58.0107 290.3 57.1427 289.927 56.452C289.572 55.7427 289.087 55.2107 288.471 54.856C287.874 54.5013 287.22 54.324 286.511 54.324C285.802 54.324 285.139 54.5013 284.523 54.856C283.926 55.2107 283.44 55.7427 283.067 56.452C282.694 57.1427 282.507 58.0107 282.507 59.056C282.507 60.1013 282.694 60.9787 283.067 61.688C283.44 62.3787 283.926 62.9013 284.523 63.256C285.12 63.6107 285.774 63.788 286.483 63.788ZM301.313 66.336C299.633 66.336 298.307 65.8133 297.337 64.768C296.385 63.7227 295.909 62.164 295.909 60.092V52.112H298.877V59.784C298.877 62.472 299.978 63.816 302.181 63.816C303.282 63.816 304.187 63.424 304.897 62.64C305.606 61.856 305.961 60.736 305.961 59.28V52.112H308.929V66H306.297L306.073 63.564C305.643 64.4227 305.009 65.104 304.169 65.608C303.347 66.0933 302.395 66.336 301.313 66.336ZM318.639 66V45.84H321.607V66H318.639ZM331.302 66.336C329.976 66.336 328.782 66.0373 327.718 65.44C326.672 64.824 325.842 63.9747 325.226 62.892C324.61 61.7907 324.302 60.512 324.302 59.056C324.302 57.6 324.61 56.3307 325.226 55.248C325.86 54.1467 326.71 53.2973 327.774 52.7C328.838 52.084 330.023 51.776 331.33 51.776C332.655 51.776 333.84 52.084 334.886 52.7C335.95 53.2973 336.79 54.1467 337.406 55.248C338.04 56.3307 338.358 57.6 338.358 59.056C338.358 60.512 338.04 61.7907 337.406 62.892C336.79 63.9747 335.95 64.824 334.886 65.44C333.822 66.0373 332.627 66.336 331.302 66.336ZM331.302 63.788C332.011 63.788 332.664 63.6107 333.262 63.256C333.878 62.9013 334.372 62.3787 334.746 61.688C335.119 60.9787 335.306 60.1013 335.306 59.056C335.306 58.0107 335.119 57.1427 334.746 56.452C334.391 55.7427 333.906 55.2107 333.29 54.856C332.692 54.5013 332.039 54.324 331.33 54.324C330.62 54.324 329.958 54.5013 329.342 54.856C328.744 55.2107 328.259 55.7427 327.886 56.452C327.512 57.1427 327.326 58.0107 327.326 59.056C327.326 60.1013 327.512 60.9787 327.886 61.688C328.259 62.3787 328.744 62.9013 329.342 63.256C329.939 63.6107 330.592 63.788 331.302 63.788ZM345.953 61.744C345.225 61.744 344.553 61.66 343.937 61.492L342.733 62.668C342.938 62.7987 343.19 62.9107 343.489 63.004C343.788 63.0973 344.208 63.1813 344.749 63.256C345.29 63.3307 346.028 63.4053 346.961 63.48C348.809 63.648 350.144 64.096 350.965 64.824C351.786 65.5333 352.197 66.4853 352.197 67.68C352.197 68.5013 351.973 69.276 351.525 70.004C351.096 70.7507 350.414 71.348 349.481 71.796C348.566 72.2627 347.39 72.496 345.953 72.496C344.012 72.496 342.434 72.1227 341.221 71.376C340.026 70.648 339.429 69.5373 339.429 68.044C339.429 67.4653 339.578 66.8867 339.877 66.308C340.194 65.748 340.689 65.216 341.361 64.712C340.969 64.544 340.624 64.3667 340.325 64.18C340.045 63.9747 339.793 63.7693 339.569 63.564V62.892L341.977 60.428C340.894 59.4947 340.353 58.272 340.353 56.76C340.353 55.8453 340.568 55.0147 340.997 54.268C341.445 53.5027 342.089 52.896 342.929 52.448C343.769 52 344.777 51.776 345.953 51.776C346.737 51.776 347.465 51.888 348.137 52.112H353.317V54.072L350.853 54.212C351.301 54.9773 351.525 55.8267 351.525 56.76C351.525 57.6933 351.301 58.5333 350.853 59.28C350.424 60.0267 349.789 60.624 348.949 61.072C348.128 61.52 347.129 61.744 345.953 61.744ZM345.953 59.42C346.812 59.42 347.502 59.196 348.025 58.748C348.566 58.2813 348.837 57.628 348.837 56.788C348.837 55.9293 348.566 55.276 348.025 54.828C347.502 54.38 346.812 54.156 345.953 54.156C345.076 54.156 344.366 54.38 343.825 54.828C343.302 55.276 343.041 55.9293 343.041 56.788C343.041 57.628 343.302 58.2813 343.825 58.748C344.366 59.196 345.076 59.42 345.953 59.42ZM342.229 67.764C342.229 68.5667 342.584 69.164 343.293 69.556C344.002 69.9667 344.889 70.172 345.953 70.172C346.98 70.172 347.81 69.948 348.445 69.5C349.08 69.0707 349.397 68.492 349.397 67.764C349.397 67.2227 349.182 66.756 348.753 66.364C348.324 65.9907 347.512 65.7573 346.317 65.664C345.421 65.608 344.628 65.524 343.937 65.412C343.284 65.7667 342.836 66.1493 342.593 66.56C342.35 66.9707 342.229 67.372 342.229 67.764ZM357.084 49.48C356.524 49.48 356.058 49.312 355.684 48.976C355.33 48.6213 355.152 48.1827 355.152 47.66C355.152 47.1373 355.33 46.708 355.684 46.372C356.058 46.0173 356.524 45.84 357.084 45.84C357.644 45.84 358.102 46.0173 358.456 46.372C358.83 46.708 359.016 47.1373 359.016 47.66C359.016 48.1827 358.83 48.6213 358.456 48.976C358.102 49.312 357.644 49.48 357.084 49.48ZM355.6 66V52.112H358.568V66H355.6ZM361.926 66V52.112H364.558L364.782 54.548C365.212 53.6893 365.837 53.0173 366.658 52.532C367.498 52.028 368.46 51.776 369.542 51.776C371.222 51.776 372.538 52.2987 373.49 53.344C374.461 54.3893 374.946 55.948 374.946 58.02V66H372.006V58.328C372.006 55.64 370.905 54.296 368.702 54.296C367.601 54.296 366.686 54.688 365.958 55.472C365.249 56.256 364.894 57.376 364.894 58.832V66H361.926ZM390.201 66C388.838 66 387.755 65.6733 386.953 65.02C386.15 64.348 385.749 63.1627 385.749 61.464V54.604H383.369V52.112H385.749L386.113 48.584H388.717V52.112H392.637V54.604H388.717V61.464C388.717 62.2293 388.875 62.7613 389.193 63.06C389.529 63.34 390.098 63.48 390.901 63.48H392.497V66H390.201ZM401.278 66.336C399.952 66.336 398.758 66.0373 397.694 65.44C396.648 64.824 395.818 63.9747 395.202 62.892C394.586 61.7907 394.278 60.512 394.278 59.056C394.278 57.6 394.586 56.3307 395.202 55.248C395.836 54.1467 396.686 53.2973 397.75 52.7C398.814 52.084 399.999 51.776 401.306 51.776C402.631 51.776 403.816 52.084 404.862 52.7C405.926 53.2973 406.766 54.1467 407.382 55.248C408.016 56.3307 408.334 57.6 408.334 59.056C408.334 60.512 408.016 61.7907 407.382 62.892C406.766 63.9747 405.926 64.824 404.862 65.44C403.798 66.0373 402.603 66.336 401.278 66.336ZM401.278 63.788C401.987 63.788 402.64 63.6107 403.238 63.256C403.854 62.9013 404.348 62.3787 404.722 61.688C405.095 60.9787 405.282 60.1013 405.282 59.056C405.282 58.0107 405.095 57.1427 404.722 56.452C404.367 55.7427 403.882 55.2107 403.266 54.856C402.668 54.5013 402.015 54.324 401.306 54.324C400.596 54.324 399.934 54.5013 399.318 54.856C398.72 55.2107 398.235 55.7427 397.862 56.452C397.488 57.1427 397.302 58.0107 397.302 59.056C397.302 60.1013 397.488 60.9787 397.862 61.688C398.235 62.3787 398.72 62.9013 399.318 63.256C399.915 63.6107 400.568 63.788 401.278 63.788ZM419.102 72.16L422.434 64.852H421.622L416.134 52.112H419.354L423.61 62.388L428.062 52.112H431.198L422.238 72.16H419.102ZM438.316 66.336C436.991 66.336 435.796 66.0373 434.732 65.44C433.687 64.824 432.856 63.9747 432.24 62.892C431.624 61.7907 431.316 60.512 431.316 59.056C431.316 57.6 431.624 56.3307 432.24 55.248C432.875 54.1467 433.724 53.2973 434.788 52.7C435.852 52.084 437.038 51.776 438.344 51.776C439.67 51.776 440.855 52.084 441.9 52.7C442.964 53.2973 443.804 54.1467 444.42 55.248C445.055 56.3307 445.372 57.6 445.372 59.056C445.372 60.512 445.055 61.7907 444.42 62.892C443.804 63.9747 442.964 64.824 441.9 65.44C440.836 66.0373 439.642 66.336 438.316 66.336ZM438.316 63.788C439.026 63.788 439.679 63.6107 440.276 63.256C440.892 62.9013 441.387 62.3787 441.76 61.688C442.134 60.9787 442.32 60.1013 442.32 59.056C442.32 58.0107 442.134 57.1427 441.76 56.452C441.406 55.7427 440.92 55.2107 440.304 54.856C439.707 54.5013 439.054 54.324 438.344 54.324C437.635 54.324 436.972 54.5013 436.356 54.856C435.759 55.2107 435.274 55.7427 434.9 56.452C434.527 57.1427 434.34 58.0107 434.34 59.056C434.34 60.1013 434.527 60.9787 434.9 61.688C435.274 62.3787 435.759 62.9013 436.356 63.256C436.954 63.6107 437.607 63.788 438.316 63.788ZM453.146 66.336C451.466 66.336 450.141 65.8133 449.17 64.768C448.218 63.7227 447.742 62.164 447.742 60.092V52.112H450.71V59.784C450.71 62.472 451.811 63.816 454.014 63.816C455.115 63.816 456.021 63.424 456.73 62.64C457.439 61.856 457.794 60.736 457.794 59.28V52.112H460.762V66H458.13L457.906 63.564C457.477 64.4227 456.842 65.104 456.002 65.608C455.181 66.0933 454.229 66.336 453.146 66.336ZM463.978 66V52.112H466.638L466.89 54.744C467.375 53.8293 468.047 53.1107 468.906 52.588C469.783 52.0467 470.838 51.776 472.07 51.776V54.884H471.258C470.436 54.884 469.699 55.024 469.046 55.304C468.411 55.5653 467.898 56.0227 467.506 56.676C467.132 57.3107 466.946 58.1973 466.946 59.336V66H463.978ZM6.58 111.336C5.404 111.336 4.43333 111.14 3.668 110.748C2.90267 110.356 2.33333 109.843 1.96 109.208C1.58667 108.555 1.4 107.845 1.4 107.08C1.4 105.736 1.92267 104.672 2.968 103.888C4.01333 103.104 5.50667 102.712 7.448 102.712H11.088V102.46C11.088 101.377 10.7893 100.565 10.192 100.024C9.61333 99.4827 8.85733 99.212 7.924 99.212C7.10267 99.212 6.384 99.4173 5.768 99.828C5.17067 100.22 4.80667 100.808 4.676 101.592H1.708C1.80133 100.584 2.13733 99.7253 2.716 99.016C3.31333 98.288 4.06 97.7373 4.956 97.364C5.87067 96.972 6.86933 96.776 7.952 96.776C9.89333 96.776 11.396 97.2893 12.46 98.316C13.524 99.324 14.056 100.705 14.056 102.46V111H11.48L11.228 108.62C10.836 109.385 10.2667 110.029 9.52 110.552C8.77333 111.075 7.79333 111.336 6.58 111.336ZM7.168 108.928C7.97067 108.928 8.64267 108.741 9.184 108.368C9.744 107.976 10.1733 107.463 10.472 106.828C10.7893 106.193 10.9853 105.493 11.06 104.728H7.756C6.58 104.728 5.74 104.933 5.236 105.344C4.75067 105.755 4.508 106.268 4.508 106.884C4.508 107.519 4.74133 108.023 5.208 108.396C5.69333 108.751 6.34667 108.928 7.168 108.928ZM23.5366 111.336C22.174 111.336 20.9513 111.028 19.8686 110.412C18.8046 109.796 17.9646 108.947 17.3486 107.864C16.7513 106.763 16.4526 105.493 16.4526 104.056C16.4526 102.619 16.7513 101.359 17.3486 100.276C17.9646 99.1747 18.8046 98.316 19.8686 97.7C20.9513 97.084 22.174 96.776 23.5366 96.776C25.254 96.776 26.6913 97.224 27.8486 98.12C29.0246 99.016 29.7806 100.229 30.1166 101.76H27.0086C26.822 100.995 26.4113 100.397 25.7766 99.968C25.142 99.5387 24.3953 99.324 23.5366 99.324C22.8086 99.324 22.1366 99.5107 21.5206 99.884C20.9046 100.239 20.41 100.771 20.0366 101.48C19.6633 102.171 19.4766 103.029 19.4766 104.056C19.4766 105.083 19.6633 105.951 20.0366 106.66C20.41 107.351 20.9046 107.883 21.5206 108.256C22.1366 108.629 22.8086 108.816 23.5366 108.816C24.3953 108.816 25.142 108.601 25.7766 108.172C26.4113 107.743 26.822 107.136 27.0086 106.352H30.1166C29.7993 107.845 29.0526 109.049 27.8766 109.964C26.7006 110.879 25.254 111.336 23.5366 111.336ZM39.3555 111.336C37.9929 111.336 36.7702 111.028 35.6875 110.412C34.6235 109.796 33.7835 108.947 33.1675 107.864C32.5702 106.763 32.2715 105.493 32.2715 104.056C32.2715 102.619 32.5702 101.359 33.1675 100.276C33.7835 99.1747 34.6235 98.316 35.6875 97.7C36.7702 97.084 37.9929 96.776 39.3555 96.776C41.0729 96.776 42.5102 97.224 43.6675 98.12C44.8435 99.016 45.5995 100.229 45.9355 101.76H42.8275C42.6409 100.995 42.2302 100.397 41.5955 99.968C40.9609 99.5387 40.2142 99.324 39.3555 99.324C38.6275 99.324 37.9555 99.5107 37.3395 99.884C36.7235 100.239 36.2289 100.771 35.8555 101.48C35.4822 102.171 35.2955 103.029 35.2955 104.056C35.2955 105.083 35.4822 105.951 35.8555 106.66C36.2289 107.351 36.7235 107.883 37.3395 108.256C37.9555 108.629 38.6275 108.816 39.3555 108.816C40.2142 108.816 40.9609 108.601 41.5955 108.172C42.2302 107.743 42.6409 107.136 42.8275 106.352H45.9355C45.6182 107.845 44.8715 109.049 43.6955 109.964C42.5195 110.879 41.0729 111.336 39.3555 111.336ZM55.0904 111.336C53.7651 111.336 52.5704 111.037 51.5064 110.44C50.4611 109.824 49.6304 108.975 49.0144 107.892C48.3984 106.791 48.0904 105.512 48.0904 104.056C48.0904 102.6 48.3984 101.331 49.0144 100.248C49.6491 99.1467 50.4984 98.2973 51.5624 97.7C52.6264 97.084 53.8118 96.776 55.1184 96.776C56.4438 96.776 57.6291 97.084 58.6744 97.7C59.7384 98.2973 60.5784 99.1467 61.1944 100.248C61.8291 101.331 62.1464 102.6 62.1464 104.056C62.1464 105.512 61.8291 106.791 61.1944 107.892C60.5784 108.975 59.7384 109.824 58.6744 110.44C57.6104 111.037 56.4158 111.336 55.0904 111.336ZM55.0904 108.788C55.7998 108.788 56.4531 108.611 57.0504 108.256C57.6664 107.901 58.1611 107.379 58.5344 106.688C58.9078 105.979 59.0944 105.101 59.0944 104.056C59.0944 103.011 58.9078 102.143 58.5344 101.452C58.1798 100.743 57.6944 100.211 57.0784 99.856C56.4811 99.5013 55.8278 99.324 55.1184 99.324C54.4091 99.324 53.7464 99.5013 53.1304 99.856C52.5331 100.211 52.0478 100.743 51.6744 101.452C51.3011 102.143 51.1144 103.011 51.1144 104.056C51.1144 105.101 51.3011 105.979 51.6744 106.688C52.0478 107.379 52.5331 107.901 53.1304 108.256C53.7278 108.611 54.3811 108.788 55.0904 108.788ZM69.9202 111.336C68.2402 111.336 66.9148 110.813 65.9442 109.768C64.9922 108.723 64.5162 107.164 64.5162 105.092V97.112H67.4842V104.784C67.4842 107.472 68.5855 108.816 70.7882 108.816C71.8895 108.816 72.7948 108.424 73.5042 107.64C74.2135 106.856 74.5682 105.736 74.5682 104.28V97.112H77.5362V111H74.9042L74.6802 108.564C74.2508 109.423 73.6162 110.104 72.7762 110.608C71.9548 111.093 71.0028 111.336 69.9202 111.336ZM80.7518 111V97.112H83.3838L83.6078 99.548C84.0371 98.6893 84.6624 98.0173 85.4838 97.532C86.3238 97.028 87.2851 96.776 88.3678 96.776C90.0478 96.776 91.3638 97.2987 92.3158 98.344C93.2864 99.3893 93.7718 100.948 93.7718 103.02V111H90.8318V103.328C90.8318 100.64 89.7304 99.296 87.5278 99.296C86.4264 99.296 85.5118 99.688 84.7838 100.472C84.0744 101.256 83.7198 102.376 83.7198 103.832V111H80.7518ZM102.531 111C101.169 111 100.086 110.673 99.2834 110.02C98.4807 109.348 98.0794 108.163 98.0794 106.464V99.604H95.6994V97.112H98.0794L98.4434 93.584H101.047V97.112H104.967V99.604H101.047V106.464C101.047 107.229 101.206 107.761 101.523 108.06C101.859 108.34 102.429 108.48 103.231 108.48H104.827V111H102.531Z" fill="#566474"/>
</svg>
